<?xml version="1.0" encoding="UTF-8" standalone="no"?>
<!DOCTYPE svg PUBLIC "-//W3C//DTD SVG 1.1//EN"
 "http://www.w3.org/Graphics/SVG/1.1/DTD/svg11.dtd">
<!-- Generated by graphviz version 2.40.1 (20161225.0304)
 -->
<!-- Title: lucid::CornellBox::MatGetter Pages: 1 -->
<svg width="505pt" height="92pt"
 viewBox="0.00 0.00 505.00 91.50" xmlns="http://www.w3.org/2000/svg" xmlns:xlink="http://www.w3.org/1999/xlink">
<g id="graph0" class="graph" transform="scale(1 1) rotate(0) translate(4 87.5)">
<title>lucid::CornellBox::MatGetter</title>
<polygon fill="#ffffff" stroke="transparent" points="-4,4 -4,-87.5 501,-87.5 501,4 -4,4"/>
<!-- Node1 -->
<g id="node1" class="node">
<title>Node1</title>
<polygon fill="#bfbfbf" stroke="#000000" points="392,-24.5 392,-54.5 497,-54.5 497,-24.5 392,-24.5"/>
<text text-anchor="start" x="400" y="-42.5" font-family="Helvetica,sans-Serif" font-size="10.00" fill="#000000">lucid::CornellBox::</text>
<text text-anchor="middle" x="444.5" y="-31.5" font-family="Helvetica,sans-Serif" font-size="10.00" fill="#000000">MatGetter</text>
</g>
<!-- Node2 -->
<g id="node2" class="node">
<title>Node2</title>
<g id="a_node2"><a xlink:href="classlucid_1_1Vector.html" target="_top" xlink:title="lucid::Vector\&lt; T, N,\l Container \&gt;">
<polygon fill="#ffffff" stroke="#000000" points="215,-24.5 215,-54.5 325,-54.5 325,-24.5 215,-24.5"/>
<text text-anchor="start" x="223" y="-42.5" font-family="Helvetica,sans-Serif" font-size="10.00" fill="#000000">lucid::Vector&lt; T, N,</text>
<text text-anchor="middle" x="270" y="-31.5" font-family="Helvetica,sans-Serif" font-size="10.00" fill="#000000"> Container &gt;</text>
</a>
</g>
</g>
<!-- Node2&#45;&gt;Node1 -->
<g id="edge1" class="edge">
<title>Node2&#45;&gt;Node1</title>
<path fill="none" stroke="#9a32cd" stroke-dasharray="5,2" d="M335.3749,-39.5C353.971,-39.5 373.9844,-39.5 391.7299,-39.5"/>
<polygon fill="#9a32cd" stroke="#9a32cd" points="335.2129,-36.0001 325.2129,-39.5 335.2129,-43.0001 335.2129,-36.0001"/>
<text text-anchor="middle" x="358.5" y="-75.5" font-family="Helvetica,sans-Serif" font-size="10.00" fill="#000000"> white</text>
<text text-anchor="middle" x="358.5" y="-64.5" font-family="Helvetica,sans-Serif" font-size="10.00" fill="#000000">black</text>
<text text-anchor="middle" x="358.5" y="-53.5" font-family="Helvetica,sans-Serif" font-size="10.00" fill="#000000">red</text>
<text text-anchor="middle" x="358.5" y="-42.5" font-family="Helvetica,sans-Serif" font-size="10.00" fill="#000000">green</text>
</g>
<!-- Node3 -->
<g id="node3" class="node">
<title>Node3</title>
<g id="a_node3"><a xlink:href="classlucid_1_1ImmutableVectorOperators.html" target="_top" xlink:title="lucid::ImmutableVectorOperators\l\&lt; T, N, Container, Vector \&gt;">
<polygon fill="#ffffff" stroke="#000000" points="0,-49.5 0,-79.5 178,-79.5 178,-49.5 0,-49.5"/>
<text text-anchor="start" x="8" y="-67.5" font-family="Helvetica,sans-Serif" font-size="10.00" fill="#000000">lucid::ImmutableVectorOperators</text>
<text text-anchor="middle" x="89" y="-56.5" font-family="Helvetica,sans-Serif" font-size="10.00" fill="#000000">&lt; T, N, Container, Vector &gt;</text>
</a>
</g>
</g>
<!-- Node3&#45;&gt;Node2 -->
<g id="edge2" class="edge">
<title>Node3&#45;&gt;Node2</title>
<path fill="none" stroke="#191970" d="M188.1187,-50.8096C197.2569,-49.5474 206.2767,-48.3016 214.801,-47.1242"/>
<polygon fill="#191970" stroke="#191970" points="187.6014,-47.3477 178.1744,-52.1831 188.5592,-54.2819 187.6014,-47.3477"/>
</g>
<!-- Node4 -->
<g id="node4" class="node">
<title>Node4</title>
<g id="a_node4"><a xlink:href="classlucid_1_1MutableVectorOperators.html" target="_top" xlink:title="lucid::MutableVectorOperators\l\&lt; T, N, Container, Vector \&gt;">
<polygon fill="#ffffff" stroke="#000000" points="7,-.5 7,-30.5 171,-30.5 171,-.5 7,-.5"/>
<text text-anchor="start" x="15" y="-18.5" font-family="Helvetica,sans-Serif" font-size="10.00" fill="#000000">lucid::MutableVectorOperators</text>
<text text-anchor="middle" x="89" y="-7.5" font-family="Helvetica,sans-Serif" font-size="10.00" fill="#000000">&lt; T, N, Container, Vector &gt;</text>
</a>
</g>
</g>
<!-- Node4&#45;&gt;Node2 -->
<g id="edge3" class="edge">
<title>Node4&#45;&gt;Node2</title>
<path fill="none" stroke="#191970" d="M181.1636,-27.7206C192.7097,-29.2516 204.2197,-30.7777 214.9414,-32.1994"/>
<polygon fill="#191970" stroke="#191970" points="181.4,-24.2214 171.0267,-26.3765 180.4798,-31.1606 181.4,-24.2214"/>
</g>
</g>
</svg>
