<?xml version="1.0" encoding="UTF-8" standalone="no"?>
<!DOCTYPE svg PUBLIC "-//W3C//DTD SVG 1.1//EN"
 "http://www.w3.org/Graphics/SVG/1.1/DTD/svg11.dtd">
<!-- Generated by graphviz version 2.42.3 (20191010.1750)
 -->
<!-- Title: lucid::detail::steady_tuple_impl&lt; std::index_sequence&lt; Idxs... &gt;, Ts... &gt; Pages: 1 -->
<svg width="153pt" height="117pt"
 viewBox="0.00 0.00 153.00 117.00" xmlns="http://www.w3.org/2000/svg" xmlns:xlink="http://www.w3.org/1999/xlink">
<g id="graph0" class="graph" transform="scale(1 1) rotate(0) translate(4 113)">
<title>lucid::detail::steady_tuple_impl&lt; std::index_sequence&lt; Idxs... &gt;, Ts... &gt;</title>
<polygon fill="white" stroke="transparent" points="-4,4 -4,-113 149,-113 149,4 -4,4"/>
<!-- Node1 -->
<g id="node1" class="node">
<title>Node1</title>
<g id="a_node1"><a xlink:title=" ">
<polygon fill="#bfbfbf" stroke="black" points="0,-0.5 0,-41.5 145,-41.5 145,-0.5 0,-0.5"/>
<text text-anchor="start" x="8" y="-29.5" font-family="Helvetica,sans-Serif" font-size="10.00">lucid::detail::steady</text>
<text text-anchor="start" x="8" y="-18.5" font-family="Helvetica,sans-Serif" font-size="10.00">_tuple_impl&lt; std::index</text>
<text text-anchor="middle" x="72.5" y="-7.5" font-family="Helvetica,sans-Serif" font-size="10.00">_sequence&lt; Idxs... &gt;, Ts... &gt;</text>
</a>
</g>
</g>
<!-- Node2 -->
<g id="node2" class="node">
<title>Node2</title>
<g id="a_node2"><a xlink:href="classlucid_1_1detail_1_1steady__tuple__leaf.html" target="_top" xlink:title=" ">
<polygon fill="white" stroke="black" points="13.5,-78.5 13.5,-108.5 131.5,-108.5 131.5,-78.5 13.5,-78.5"/>
<text text-anchor="start" x="21.5" y="-96.5" font-family="Helvetica,sans-Serif" font-size="10.00">lucid::detail::steady</text>
<text text-anchor="middle" x="72.5" y="-85.5" font-family="Helvetica,sans-Serif" font-size="10.00">_tuple_leaf&lt; Idxs, Ts &gt;</text>
</a>
</g>
</g>
<!-- Node2&#45;&gt;Node1 -->
<g id="edge1" class="edge">
<title>Node2&#45;&gt;Node1</title>
<path fill="none" stroke="midnightblue" d="M72.5,-67.98C72.5,-59.35 72.5,-49.76 72.5,-41.59"/>
<polygon fill="midnightblue" stroke="midnightblue" points="69,-68.23 72.5,-78.23 76,-68.23 69,-68.23"/>
</g>
</g>
</svg>
