<?xml version="1.0" encoding="UTF-8" standalone="no"?>
<!DOCTYPE svg PUBLIC "-//W3C//DTD SVG 1.1//EN"
 "http://www.w3.org/Graphics/SVG/1.1/DTD/svg11.dtd">
<!-- Generated by graphviz version 2.40.1 (20161225.0304)
 -->
<!-- Title: lucid::PointN_&lt; T, N, Container &gt; Pages: 1 -->
<svg width="326pt" height="88pt"
 viewBox="0.00 0.00 326.00 88.00" xmlns="http://www.w3.org/2000/svg" xmlns:xlink="http://www.w3.org/1999/xlink">
<g id="graph0" class="graph" transform="scale(1 1) rotate(0) translate(4 84)">
<title>lucid::PointN_&lt; T, N, Container &gt;</title>
<polygon fill="#ffffff" stroke="transparent" points="-4,4 -4,-84 322,-84 322,4 -4,4"/>
<!-- Node0 -->
<g id="node1" class="node">
<title>Node0</title>
<polygon fill="#bfbfbf" stroke="#000000" points="214,-24.5 214,-54.5 318,-54.5 318,-24.5 214,-24.5"/>
<text text-anchor="start" x="222" y="-42.5" font-family="Helvetica,sans-Serif" font-size="10.00" fill="#000000">lucid::PointN_&lt; T,</text>
<text text-anchor="middle" x="266" y="-31.5" font-family="Helvetica,sans-Serif" font-size="10.00" fill="#000000"> N, Container &gt;</text>
</g>
<!-- Node1 -->
<g id="node2" class="node">
<title>Node1</title>
<g id="a_node2"><a xlink:href="classlucid_1_1ImmutableVectorOperators.html" target="_top" xlink:title="lucid::ImmutableVectorOperators\l\&lt; T, N, Container, PointN_ \&gt;">
<polygon fill="#ffffff" stroke="#000000" points="0,-49.5 0,-79.5 178,-79.5 178,-49.5 0,-49.5"/>
<text text-anchor="start" x="8" y="-67.5" font-family="Helvetica,sans-Serif" font-size="10.00" fill="#000000">lucid::ImmutableVectorOperators</text>
<text text-anchor="middle" x="89" y="-56.5" font-family="Helvetica,sans-Serif" font-size="10.00" fill="#000000">&lt; T, N, Container, PointN_ &gt;</text>
</a>
</g>
</g>
<!-- Node1&#45;&gt;Node0 -->
<g id="edge1" class="edge">
<title>Node1&#45;&gt;Node0</title>
<path fill="none" stroke="#191970" d="M188.0243,-50.5135C196.8501,-49.2669 205.5343,-48.0404 213.719,-46.8843"/>
<polygon fill="#191970" stroke="#191970" points="187.4308,-47.0625 178.0186,-51.9268 188.4098,-53.9937 187.4308,-47.0625"/>
</g>
<!-- Node2 -->
<g id="node3" class="node">
<title>Node2</title>
<g id="a_node3"><a xlink:href="classlucid_1_1MutableVectorOperators.html" target="_top" xlink:title="lucid::MutableVectorOperators\l\&lt; T, N, Container, PointN_ \&gt;">
<polygon fill="#ffffff" stroke="#000000" points="7,-.5 7,-30.5 171,-30.5 171,-.5 7,-.5"/>
<text text-anchor="start" x="15" y="-18.5" font-family="Helvetica,sans-Serif" font-size="10.00" fill="#000000">lucid::MutableVectorOperators</text>
<text text-anchor="middle" x="89" y="-7.5" font-family="Helvetica,sans-Serif" font-size="10.00" fill="#000000">&lt; T, N, Container, PointN_ &gt;</text>
</a>
</g>
</g>
<!-- Node2&#45;&gt;Node0 -->
<g id="edge2" class="edge">
<title>Node2&#45;&gt;Node0</title>
<path fill="none" stroke="#191970" d="M181.2147,-28.0037C192.3102,-29.5082 203.3276,-31.002 213.5678,-32.3905"/>
<polygon fill="#191970" stroke="#191970" points="181.4028,-24.4973 171.0232,-26.6218 180.4622,-31.4338 181.4028,-24.4973"/>
</g>
</g>
</svg>
