<?xml version="1.0" encoding="UTF-8" standalone="no"?>
<!DOCTYPE svg PUBLIC "-//W3C//DTD SVG 1.1//EN"
 "http://www.w3.org/Graphics/SVG/1.1/DTD/svg11.dtd">
<!-- Generated by graphviz version 2.40.1 (20161225.0304)
 -->
<!-- Title: Graphical Class Hierarchy Pages: 1 -->
<svg width="300pt" height="78pt"
 viewBox="0.00 0.00 300.00 77.50" xmlns="http://www.w3.org/2000/svg" xmlns:xlink="http://www.w3.org/1999/xlink">
<g id="graph0" class="graph" transform="scale(1 1) rotate(0) translate(4 73.5)">
<title>Graphical Class Hierarchy</title>
<polygon fill="#ffffff" stroke="transparent" points="-4,4 -4,-73.5 296,-73.5 296,4 -4,4"/>
<!-- Node2 -->
<g id="node1" class="node">
<title>Node2</title>
<polygon fill="#ffffff" stroke="#bfbfbf" points="0,-28 0,-47 78,-47 78,-28 0,-28"/>
<text text-anchor="middle" x="39" y="-35" font-family="Helvetica,sans-Serif" font-size="10.00" fill="#000000">view_facade</text>
</g>
<!-- Node0 -->
<g id="node2" class="node">
<title>Node0</title>
<g id="a_node2"><a xlink:href="classlucid_1_1argparse_1_1ArgsRange.html" target="_top" xlink:title="lucid::argparse::ArgsRange">
<polygon fill="#ffffff" stroke="#000000" points="129.5,-50 129.5,-69 276.5,-69 276.5,-50 129.5,-50"/>
<text text-anchor="middle" x="203" y="-57" font-family="Helvetica,sans-Serif" font-size="10.00" fill="#000000">lucid::argparse::ArgsRange</text>
</a>
</g>
</g>
<!-- Node2&#45;&gt;Node0 -->
<g id="edge1" class="edge">
<title>Node2&#45;&gt;Node0</title>
<path fill="none" stroke="#191970" d="M88.4447,-44.1328C102.1449,-45.9707 117.2925,-48.0026 131.9633,-49.9707"/>
<polygon fill="#191970" stroke="#191970" points="88.6587,-40.6303 78.2821,-42.7695 87.7279,-47.5681 88.6587,-40.6303"/>
</g>
<!-- Node4 -->
<g id="node3" class="node">
<title>Node4</title>
<g id="a_node3"><a xlink:href="classlucid_1_1argparse_1_1Binding_3_01Converter_00_01-1ul_01_4_1_1value__range.html" target="_top" xlink:title="lucid::argparse::Binding\l\&lt; Converter, &#45;1ul \&gt;::value_range">
<polygon fill="#ffffff" stroke="#000000" points="114,-.5 114,-30.5 292,-30.5 292,-.5 114,-.5"/>
<text text-anchor="start" x="122" y="-18.5" font-family="Helvetica,sans-Serif" font-size="10.00" fill="#000000">lucid::argparse::Binding</text>
<text text-anchor="middle" x="203" y="-7.5" font-family="Helvetica,sans-Serif" font-size="10.00" fill="#000000">&lt; Converter, &#45;1ul &gt;::value_range</text>
</a>
</g>
</g>
<!-- Node2&#45;&gt;Node4 -->
<g id="edge2" class="edge">
<title>Node2&#45;&gt;Node4</title>
<path fill="none" stroke="#191970" d="M88.3262,-30.8831C96.4986,-29.7868 105.1888,-28.621 113.9873,-27.4407"/>
<polygon fill="#191970" stroke="#191970" points="87.7279,-27.4319 78.2821,-32.2305 88.6587,-34.3697 87.7279,-27.4319"/>
</g>
</g>
</svg>
