<?xml version="1.0" encoding="UTF-8" standalone="no"?>
<!DOCTYPE svg PUBLIC "-//W3C//DTD SVG 1.1//EN"
 "http://www.w3.org/Graphics/SVG/1.1/DTD/svg11.dtd">
<!-- Generated by graphviz version 2.40.1 (20161225.0304)
 -->
<!-- Title: Graphical Class Hierarchy Pages: 1 -->
<svg width="332pt" height="110pt"
 viewBox="0.00 0.00 332.00 110.00" xmlns="http://www.w3.org/2000/svg" xmlns:xlink="http://www.w3.org/1999/xlink">
<g id="graph0" class="graph" transform="scale(1 1) rotate(0) translate(4 106)">
<title>Graphical Class Hierarchy</title>
<polygon fill="#ffffff" stroke="transparent" points="-4,4 -4,-106 328,-106 328,4 -4,4"/>
<!-- Node106 -->
<g id="node1" class="node">
<title>Node106</title>
<g id="a_node1"><a xlink:href="classlucid_1_1ImmutableVectorOperators.html" target="_top" xlink:title="lucid::ImmutableVectorOperators\l\&lt; std::array, 3, std::array,\l PointN_ \&gt;">
<polygon fill="#ffffff" stroke="#000000" points="0,-60.5 0,-101.5 178,-101.5 178,-60.5 0,-60.5"/>
<text text-anchor="start" x="8" y="-89.5" font-family="Helvetica,sans-Serif" font-size="10.00" fill="#000000">lucid::ImmutableVectorOperators</text>
<text text-anchor="start" x="8" y="-78.5" font-family="Helvetica,sans-Serif" font-size="10.00" fill="#000000">&lt; std::array, 3, std::array,</text>
<text text-anchor="middle" x="89" y="-67.5" font-family="Helvetica,sans-Serif" font-size="10.00" fill="#000000"> PointN_ &gt;</text>
</a>
</g>
</g>
<!-- Node1 -->
<g id="node2" class="node">
<title>Node1</title>
<g id="a_node2"><a xlink:href="classlucid_1_1PointN__.html" target="_top" xlink:title="lucid::PointN_\&lt; std\l::array \&gt;">
<polygon fill="#ffffff" stroke="#000000" points="214,-36 214,-66 324,-66 324,-36 214,-36"/>
<text text-anchor="start" x="222" y="-54" font-family="Helvetica,sans-Serif" font-size="10.00" fill="#000000">lucid::PointN_&lt; std</text>
<text text-anchor="middle" x="269" y="-43" font-family="Helvetica,sans-Serif" font-size="10.00" fill="#000000">::array &gt;</text>
</a>
</g>
</g>
<!-- Node106&#45;&gt;Node1 -->
<g id="edge1" class="edge">
<title>Node106&#45;&gt;Node1</title>
<path fill="none" stroke="#191970" d="M188.2025,-64.4663C197.0252,-62.9958 205.7287,-61.5452 213.9691,-60.1718"/>
<polygon fill="#191970" stroke="#191970" points="187.4975,-61.0354 178.209,-66.1318 188.6484,-67.9401 187.4975,-61.0354"/>
</g>
<!-- Node0 -->
<g id="node3" class="node">
<title>Node0</title>
<g id="a_node3"><a xlink:href="classlucid_1_1MutableVectorOperators.html" target="_top" xlink:title="lucid::MutableVectorOperators\l\&lt; std::array, 3, std::array,\l PointN_ \&gt;">
<polygon fill="#ffffff" stroke="#000000" points="7,-.5 7,-41.5 171,-41.5 171,-.5 7,-.5"/>
<text text-anchor="start" x="15" y="-29.5" font-family="Helvetica,sans-Serif" font-size="10.00" fill="#000000">lucid::MutableVectorOperators</text>
<text text-anchor="start" x="15" y="-18.5" font-family="Helvetica,sans-Serif" font-size="10.00" fill="#000000">&lt; std::array, 3, std::array,</text>
<text text-anchor="middle" x="89" y="-7.5" font-family="Helvetica,sans-Serif" font-size="10.00" fill="#000000"> PointN_ &gt;</text>
</a>
</g>
</g>
<!-- Node0&#45;&gt;Node1 -->
<g id="edge2" class="edge">
<title>Node0&#45;&gt;Node1</title>
<path fill="none" stroke="#191970" d="M181.295,-36.3825C192.4043,-38.2341 203.467,-40.0778 213.8053,-41.8009"/>
<polygon fill="#191970" stroke="#191970" points="181.5383,-32.8748 171.0989,-34.6831 180.3874,-39.7796 181.5383,-32.8748"/>
</g>
</g>
</svg>
