<?xml version="1.0" encoding="UTF-8" standalone="no"?>
<!DOCTYPE svg PUBLIC "-//W3C//DTD SVG 1.1//EN"
 "http://www.w3.org/Graphics/SVG/1.1/DTD/svg11.dtd">
<!-- Generated by graphviz version 2.40.1 (20161225.0304)
 -->
<!-- Title: Graphical Class Hierarchy Pages: 1 -->
<svg width="325pt" height="110pt"
 viewBox="0.00 0.00 325.00 110.00" xmlns="http://www.w3.org/2000/svg" xmlns:xlink="http://www.w3.org/1999/xlink">
<g id="graph0" class="graph" transform="scale(1 1) rotate(0) translate(4 106)">
<title>Graphical Class Hierarchy</title>
<polygon fill="#ffffff" stroke="transparent" points="-4,4 -4,-106 321,-106 321,4 -4,4"/>
<!-- Node105 -->
<g id="node1" class="node">
<title>Node105</title>
<g id="a_node1"><a xlink:href="classlucid_1_1ImmutableVectorOperators.html" target="_top" xlink:title="lucid::ImmutableVectorOperators\l\&lt; std::array, N, std::array,\l Vector \&gt;">
<polygon fill="#ffffff" stroke="#000000" points="0,-60.5 0,-101.5 178,-101.5 178,-60.5 0,-60.5"/>
<text text-anchor="start" x="8" y="-89.5" font-family="Helvetica,sans-Serif" font-size="10.00" fill="#000000">lucid::ImmutableVectorOperators</text>
<text text-anchor="start" x="8" y="-78.5" font-family="Helvetica,sans-Serif" font-size="10.00" fill="#000000">&lt; std::array, N, std::array,</text>
<text text-anchor="middle" x="89" y="-67.5" font-family="Helvetica,sans-Serif" font-size="10.00" fill="#000000"> Vector &gt;</text>
</a>
</g>
</g>
<!-- Node1 -->
<g id="node2" class="node">
<title>Node1</title>
<g id="a_node2"><a xlink:href="classlucid_1_1Vector.html" target="_top" xlink:title="lucid::Vector\&lt; std\l::array \&gt;">
<polygon fill="#ffffff" stroke="#000000" points="214,-36 214,-66 317,-66 317,-36 214,-36"/>
<text text-anchor="start" x="222" y="-54" font-family="Helvetica,sans-Serif" font-size="10.00" fill="#000000">lucid::Vector&lt; std</text>
<text text-anchor="middle" x="265.5" y="-43" font-family="Helvetica,sans-Serif" font-size="10.00" fill="#000000">::array &gt;</text>
</a>
</g>
</g>
<!-- Node105&#45;&gt;Node1 -->
<g id="edge1" class="edge">
<title>Node105&#45;&gt;Node1</title>
<path fill="none" stroke="#191970" d="M187.982,-64.1759C196.763,-62.6833 205.4002,-61.2153 213.5388,-59.8319"/>
<polygon fill="#191970" stroke="#191970" points="187.2977,-60.7419 178.0256,-65.8682 188.4707,-67.6429 187.2977,-60.7419"/>
</g>
<!-- Node0 -->
<g id="node3" class="node">
<title>Node0</title>
<g id="a_node3"><a xlink:href="classlucid_1_1MutableVectorOperators.html" target="_top" xlink:title="lucid::MutableVectorOperators\l\&lt; std::array, N, std::array,\l Vector \&gt;">
<polygon fill="#ffffff" stroke="#000000" points="7,-.5 7,-41.5 171,-41.5 171,-.5 7,-.5"/>
<text text-anchor="start" x="15" y="-29.5" font-family="Helvetica,sans-Serif" font-size="10.00" fill="#000000">lucid::MutableVectorOperators</text>
<text text-anchor="start" x="15" y="-18.5" font-family="Helvetica,sans-Serif" font-size="10.00" fill="#000000">&lt; std::array, N, std::array,</text>
<text text-anchor="middle" x="89" y="-7.5" font-family="Helvetica,sans-Serif" font-size="10.00" fill="#000000"> Vector &gt;</text>
</a>
</g>
</g>
<!-- Node0&#45;&gt;Node1 -->
<g id="edge2" class="edge">
<title>Node0&#45;&gt;Node1</title>
<path fill="none" stroke="#191970" d="M180.9782,-36.6337C192.2736,-38.5536 203.4875,-40.4596 213.8779,-42.2257"/>
<polygon fill="#191970" stroke="#191970" points="181.4946,-33.1713 171.0495,-34.9461 180.3216,-40.0724 181.4946,-33.1713"/>
</g>
</g>
</svg>
