<?xml version="1.0" encoding="UTF-8" standalone="no"?>
<!DOCTYPE svg PUBLIC "-//W3C//DTD SVG 1.1//EN"
 "http://www.w3.org/Graphics/SVG/1.1/DTD/svg11.dtd">
<!-- Generated by graphviz version 2.40.1 (20161225.0304)
 -->
<!-- Title: Graphical Class Hierarchy Pages: 1 -->
<svg width="329pt" height="50pt"
 viewBox="0.00 0.00 329.00 50.00" xmlns="http://www.w3.org/2000/svg" xmlns:xlink="http://www.w3.org/1999/xlink">
<g id="graph0" class="graph" transform="scale(1 1) rotate(0) translate(4 46)">
<title>Graphical Class Hierarchy</title>
<polygon fill="#ffffff" stroke="transparent" points="-4,4 -4,-46 325,-46 325,4 -4,4"/>
<!-- Node0 -->
<g id="node1" class="node">
<title>Node0</title>
<g id="a_node1"><a xlink:href="classlucid_1_1detail_1_1steady__tuple__leaf.html" target="_top" xlink:title="lucid::detail::steady\l_tuple_leaf\&lt; Idxs, Ts \&gt;">
<polygon fill="#ffffff" stroke="#000000" points="0,-6 0,-36 129,-36 129,-6 0,-6"/>
<text text-anchor="start" x="8" y="-24" font-family="Helvetica,sans-Serif" font-size="10.00" fill="#000000">lucid::detail::steady</text>
<text text-anchor="middle" x="64.5" y="-13" font-family="Helvetica,sans-Serif" font-size="10.00" fill="#000000">_tuple_leaf&lt; Idxs, Ts &gt;</text>
</a>
</g>
</g>
<!-- Node1 -->
<g id="node2" class="node">
<title>Node1</title>
<g id="a_node2"><a xlink:href="classlucid_1_1detail_1_1steady__tuple__impl_3_01std_1_1index__sequence_3_01Idxs_8_8_8_01_4_00_01Ts_8_8_8_01_4.html" target="_top" xlink:title="lucid::detail::steady\l_tuple_impl\&lt; std::index\l_sequence\&lt; Idxs... \&gt;, Ts... \&gt;">
<polygon fill="#ffffff" stroke="#000000" points="165,-.5 165,-41.5 321,-41.5 321,-.5 165,-.5"/>
<text text-anchor="start" x="173" y="-29.5" font-family="Helvetica,sans-Serif" font-size="10.00" fill="#000000">lucid::detail::steady</text>
<text text-anchor="start" x="173" y="-18.5" font-family="Helvetica,sans-Serif" font-size="10.00" fill="#000000">_tuple_impl&lt; std::index</text>
<text text-anchor="middle" x="243" y="-7.5" font-family="Helvetica,sans-Serif" font-size="10.00" fill="#000000">_sequence&lt; Idxs... &gt;, Ts... &gt;</text>
</a>
</g>
</g>
<!-- Node0&#45;&gt;Node1 -->
<g id="edge1" class="edge">
<title>Node0&#45;&gt;Node1</title>
<path fill="none" stroke="#191970" d="M139.3603,-21C147.7826,-21 156.3805,-21 164.8432,-21"/>
<polygon fill="#191970" stroke="#191970" points="139.195,-17.5001 129.195,-21 139.1949,-24.5001 139.195,-17.5001"/>
</g>
</g>
</svg>
