<?xml version="1.0" encoding="UTF-8" standalone="no"?>
<!DOCTYPE svg PUBLIC "-//W3C//DTD SVG 1.1//EN"
 "http://www.w3.org/Graphics/SVG/1.1/DTD/svg11.dtd">
<!-- Generated by graphviz version 2.40.1 (20161225.0304)
 -->
<!-- Title: Graphical Class Hierarchy Pages: 1 -->
<svg width="368pt" height="110pt"
 viewBox="0.00 0.00 368.00 110.00" xmlns="http://www.w3.org/2000/svg" xmlns:xlink="http://www.w3.org/1999/xlink">
<g id="graph0" class="graph" transform="scale(1 1) rotate(0) translate(4 106)">
<title>Graphical Class Hierarchy</title>
<polygon fill="#ffffff" stroke="transparent" points="-4,4 -4,-106 364,-106 364,4 -4,4"/>
<!-- Node97 -->
<g id="node1" class="node">
<title>Node97</title>
<g id="a_node1"><a xlink:href="classlucid_1_1ImmutableVectorOperators.html" target="_top" xlink:title="lucid::ImmutableVectorOperators\l\&lt; Container, N, std::array,\l Vector \&gt;">
<polygon fill="#ffffff" stroke="#000000" points="0,-60.5 0,-101.5 178,-101.5 178,-60.5 0,-60.5"/>
<text text-anchor="start" x="8" y="-89.5" font-family="Helvetica,sans-Serif" font-size="10.00" fill="#000000">lucid::ImmutableVectorOperators</text>
<text text-anchor="start" x="8" y="-78.5" font-family="Helvetica,sans-Serif" font-size="10.00" fill="#000000">&lt; Container, N, std::array,</text>
<text text-anchor="middle" x="89" y="-67.5" font-family="Helvetica,sans-Serif" font-size="10.00" fill="#000000"> Vector &gt;</text>
</a>
</g>
</g>
<!-- Node1 -->
<g id="node2" class="node">
<title>Node1</title>
<g id="a_node2"><a xlink:href="classlucid_1_1Vector.html" target="_top" xlink:title="lucid::Vector\&lt; Container \&gt;">
<polygon fill="#ffffff" stroke="#000000" points="214,-41.5 214,-60.5 360,-60.5 360,-41.5 214,-41.5"/>
<text text-anchor="middle" x="287" y="-48.5" font-family="Helvetica,sans-Serif" font-size="10.00" fill="#000000">lucid::Vector&lt; Container &gt;</text>
</a>
</g>
</g>
<!-- Node97&#45;&gt;Node1 -->
<g id="edge1" class="edge">
<title>Node97&#45;&gt;Node1</title>
<path fill="none" stroke="#191970" d="M188.3552,-65.9462C200.5177,-64.1034 212.673,-62.2617 224.087,-60.5323"/>
<polygon fill="#191970" stroke="#191970" points="187.516,-62.5333 178.1532,-67.4919 188.5647,-69.4543 187.516,-62.5333"/>
</g>
<!-- Node0 -->
<g id="node3" class="node">
<title>Node0</title>
<g id="a_node3"><a xlink:href="classlucid_1_1MutableVectorOperators.html" target="_top" xlink:title="lucid::MutableVectorOperators\l\&lt; Container, N, std::array,\l Vector \&gt;">
<polygon fill="#ffffff" stroke="#000000" points="7,-.5 7,-41.5 171,-41.5 171,-.5 7,-.5"/>
<text text-anchor="start" x="15" y="-29.5" font-family="Helvetica,sans-Serif" font-size="10.00" fill="#000000">lucid::MutableVectorOperators</text>
<text text-anchor="start" x="15" y="-18.5" font-family="Helvetica,sans-Serif" font-size="10.00" fill="#000000">&lt; Container, N, std::array,</text>
<text text-anchor="middle" x="89" y="-7.5" font-family="Helvetica,sans-Serif" font-size="10.00" fill="#000000"> Vector &gt;</text>
</a>
</g>
</g>
<!-- Node0&#45;&gt;Node1 -->
<g id="edge2" class="edge">
<title>Node0&#45;&gt;Node1</title>
<path fill="none" stroke="#191970" d="M181.2325,-34.9746C195.7192,-37.1696 210.4,-39.3939 224.0263,-41.4585"/>
<polygon fill="#191970" stroke="#191970" points="181.6612,-31.4997 171.2497,-33.4621 180.6125,-38.4207 181.6612,-31.4997"/>
</g>
</g>
</svg>
