<?xml version="1.0" encoding="UTF-8" standalone="no"?>
<!DOCTYPE svg PUBLIC "-//W3C//DTD SVG 1.1//EN"
 "http://www.w3.org/Graphics/SVG/1.1/DTD/svg11.dtd">
<!-- Generated by graphviz version 2.40.1 (20161225.0304)
 -->
<!-- Title: lucid::argparse::detail::State&lt; Desc, Bindings &gt; Pages: 1 -->
<svg width="151pt" height="106pt"
 viewBox="0.00 0.00 151.00 106.00" xmlns="http://www.w3.org/2000/svg" xmlns:xlink="http://www.w3.org/1999/xlink">
<g id="graph0" class="graph" transform="scale(1 1) rotate(0) translate(4 102)">
<title>lucid::argparse::detail::State&lt; Desc, Bindings &gt;</title>
<polygon fill="#ffffff" stroke="transparent" points="-4,4 -4,-102 147,-102 147,4 -4,4"/>
<!-- Node1 -->
<g id="node1" class="node">
<title>Node1</title>
<polygon fill="#bfbfbf" stroke="#000000" points="0,-.5 0,-30.5 143,-30.5 143,-.5 0,-.5"/>
<text text-anchor="start" x="8" y="-18.5" font-family="Helvetica,sans-Serif" font-size="10.00" fill="#000000">lucid::argparse::detail</text>
<text text-anchor="middle" x="71.5" y="-7.5" font-family="Helvetica,sans-Serif" font-size="10.00" fill="#000000">::State&lt; Desc, Bindings &gt;</text>
</g>
<!-- Node2 -->
<g id="node2" class="node">
<title>Node2</title>
<polygon fill="#ffffff" stroke="#bfbfbf" points="17,-78.5 17,-97.5 58,-97.5 58,-78.5 17,-78.5"/>
<text text-anchor="middle" x="37.5" y="-85.5" font-family="Helvetica,sans-Serif" font-size="10.00" fill="#000000">Desc</text>
</g>
<!-- Node2&#45;&gt;Node1 -->
<g id="edge1" class="edge">
<title>Node2&#45;&gt;Node1</title>
<path fill="none" stroke="#9a32cd" stroke-dasharray="5,2" d="M46.3615,-69.1041C51.9772,-57.1296 59.1435,-41.8484 64.3867,-30.668"/>
<polygon fill="#9a32cd" stroke="#9a32cd" points="43.1625,-67.6824 42.0854,-78.2223 49.5002,-70.6546 43.1625,-67.6824"/>
<text text-anchor="middle" x="69.5" y="-52" font-family="Helvetica,sans-Serif" font-size="10.00" fill="#000000"> desc</text>
</g>
<!-- Node3 -->
<g id="node3" class="node">
<title>Node3</title>
<polygon fill="#ffffff" stroke="#bfbfbf" points="76,-78.5 76,-97.5 135,-97.5 135,-78.5 76,-78.5"/>
<text text-anchor="middle" x="105.5" y="-85.5" font-family="Helvetica,sans-Serif" font-size="10.00" fill="#000000">Bindings</text>
</g>
<!-- Node3&#45;&gt;Node1 -->
<g id="edge2" class="edge">
<title>Node3&#45;&gt;Node1</title>
<path fill="none" stroke="#9a32cd" stroke-dasharray="5,2" d="M96.6385,-69.1041C91.0228,-57.1296 83.8565,-41.8484 78.6133,-30.668"/>
<polygon fill="#9a32cd" stroke="#9a32cd" points="93.4998,-70.6546 100.9146,-78.2223 99.8375,-67.6824 93.4998,-70.6546"/>
<text text-anchor="middle" x="114" y="-52" font-family="Helvetica,sans-Serif" font-size="10.00" fill="#000000"> bindings</text>
</g>
</g>
</svg>
