<?xml version="1.0" encoding="UTF-8" standalone="no"?>
<!DOCTYPE svg PUBLIC "-//W3C//DTD SVG 1.1//EN"
 "http://www.w3.org/Graphics/SVG/1.1/DTD/svg11.dtd">
<!-- Generated by graphviz version 2.42.3 (20191010.1750)
 -->
<!-- Title: lucid::PathTracer_&lt; RandomEngine, Scene, MaterialGetter &gt; Pages: 1 -->
<svg width="239pt" height="206pt"
 viewBox="0.00 0.00 238.50 206.00" xmlns="http://www.w3.org/2000/svg" xmlns:xlink="http://www.w3.org/1999/xlink">
<g id="graph0" class="graph" transform="scale(1 1) rotate(0) translate(4 202)">
<title>lucid::PathTracer_&lt; RandomEngine, Scene, MaterialGetter &gt;</title>
<polygon fill="white" stroke="transparent" points="-4,4 -4,-202 234.5,-202 234.5,4 -4,4"/>
<!-- Node1 -->
<g id="node1" class="node">
<title>Node1</title>
<g id="a_node1"><a xlink:title=" ">
<polygon fill="#bfbfbf" stroke="black" points="8.5,-0.5 8.5,-41.5 137.5,-41.5 137.5,-0.5 8.5,-0.5"/>
<text text-anchor="start" x="16.5" y="-29.5" font-family="Helvetica,sans-Serif" font-size="10.00">lucid::PathTracer_</text>
<text text-anchor="start" x="16.5" y="-18.5" font-family="Helvetica,sans-Serif" font-size="10.00">&lt; RandomEngine, Scene,</text>
<text text-anchor="middle" x="73" y="-7.5" font-family="Helvetica,sans-Serif" font-size="10.00"> MaterialGetter &gt;</text>
</a>
</g>
</g>
<!-- Node2 -->
<g id="node2" class="node">
<title>Node2</title>
<g id="a_node2"><a xlink:href="structlucid_1_1Ray__.html" target="_top" xlink:title=" ">
<polygon fill="white" stroke="black" points="105.5,-89.5 105.5,-108.5 230.5,-108.5 230.5,-89.5 105.5,-89.5"/>
<text text-anchor="middle" x="168" y="-96.5" font-family="Helvetica,sans-Serif" font-size="10.00">lucid::Ray_&lt; std::array &gt;</text>
</a>
</g>
</g>
<!-- Node2&#45;&gt;Node1 -->
<g id="edge1" class="edge">
<title>Node2&#45;&gt;Node1</title>
<path fill="none" stroke="#9a32cd" stroke-dasharray="5,2" d="M149.16,-82.93C134.37,-71.1 113.66,-54.53 97.57,-41.66"/>
<polygon fill="#9a32cd" stroke="#9a32cd" points="147.11,-85.77 157.1,-89.28 151.48,-80.3 147.11,-85.77"/>
<text text-anchor="middle" x="139.5" y="-63" font-family="Helvetica,sans-Serif" font-size="10.00"> ray</text>
</g>
<!-- Node3 -->
<g id="node3" class="node">
<title>Node3</title>
<g id="a_node3"><a xlink:href="classlucid_1_1Vector.html" target="_top" xlink:title=" ">
<polygon fill="white" stroke="black" points="0,-167.5 0,-197.5 94,-197.5 94,-167.5 0,-167.5"/>
<text text-anchor="start" x="8" y="-185.5" font-family="Helvetica,sans-Serif" font-size="10.00">lucid::Vector&lt; std</text>
<text text-anchor="middle" x="47" y="-174.5" font-family="Helvetica,sans-Serif" font-size="10.00">::array &gt;</text>
</a>
</g>
</g>
<!-- Node3&#45;&gt;Node1 -->
<g id="edge3" class="edge">
<title>Node3&#45;&gt;Node1</title>
<path fill="none" stroke="#9a32cd" stroke-dasharray="5,2" d="M41.71,-157.36C38.46,-138.52 35.83,-111.8 41,-89 44.82,-72.15 53.41,-54.59 60.72,-41.67"/>
<polygon fill="#9a32cd" stroke="#9a32cd" points="38.27,-158.03 43.58,-167.2 45.15,-156.72 38.27,-158.03"/>
<text text-anchor="middle" x="69" y="-96.5" font-family="Helvetica,sans-Serif" font-size="10.00"> sample_pos</text>
</g>
<!-- Node3&#45;&gt;Node2 -->
<g id="edge2" class="edge">
<title>Node3&#45;&gt;Node2</title>
<path fill="none" stroke="#9a32cd" stroke-dasharray="5,2" d="M76.26,-161.79C101.46,-144.82 136.64,-121.12 155.26,-108.58"/>
<polygon fill="#9a32cd" stroke="#9a32cd" points="74.14,-159 67.8,-167.49 78.05,-164.81 74.14,-159"/>
<text text-anchor="middle" x="138.5" y="-141" font-family="Helvetica,sans-Serif" font-size="10.00"> origin</text>
<text text-anchor="middle" x="138.5" y="-130" font-family="Helvetica,sans-Serif" font-size="10.00">dir</text>
</g>
</g>
</svg>
