<?xml version="1.0" encoding="UTF-8" standalone="no"?>
<!DOCTYPE svg PUBLIC "-//W3C//DTD SVG 1.1//EN"
 "http://www.w3.org/Graphics/SVG/1.1/DTD/svg11.dtd">
<!-- Generated by graphviz version 2.40.1 (20161225.0304)
 -->
<!-- Title: FilmCapture Pages: 1 -->
<svg width="248pt" height="173pt"
 viewBox="0.00 0.00 247.50 173.00" xmlns="http://www.w3.org/2000/svg" xmlns:xlink="http://www.w3.org/1999/xlink">
<g id="graph0" class="graph" transform="scale(1 1) rotate(0) translate(4 169)">
<title>FilmCapture</title>
<polygon fill="#ffffff" stroke="transparent" points="-4,4 -4,-169 243.5,-169 243.5,4 -4,4"/>
<!-- Node1 -->
<g id="node1" class="node">
<title>Node1</title>
<polygon fill="#bfbfbf" stroke="#000000" points="85.5,-.5 85.5,-19.5 160.5,-19.5 160.5,-.5 85.5,-.5"/>
<text text-anchor="middle" x="123" y="-7.5" font-family="Helvetica,sans-Serif" font-size="10.00" fill="#000000">FilmCapture</text>
</g>
<!-- Node2 -->
<g id="node2" class="node">
<title>Node2</title>
<g id="a_node2"><a xlink:href="structlucid_1_1Film.html" target="_top" xlink:title="lucid::Film\&lt; Image \&gt;">
<polygon fill="#ffffff" stroke="#000000" points="63.5,-67.5 63.5,-86.5 182.5,-86.5 182.5,-67.5 63.5,-67.5"/>
<text text-anchor="middle" x="123" y="-74.5" font-family="Helvetica,sans-Serif" font-size="10.00" fill="#000000">lucid::Film&lt; Image &gt;</text>
</a>
</g>
</g>
<!-- Node2&#45;&gt;Node1 -->
<g id="edge1" class="edge">
<title>Node2&#45;&gt;Node1</title>
<path fill="none" stroke="#9a32cd" stroke-dasharray="5,2" d="M123,-57.1079C123,-44.714 123,-29.3263 123,-19.5817"/>
<polygon fill="#9a32cd" stroke="#9a32cd" points="119.5001,-57.4005 123,-67.4005 126.5001,-57.4006 119.5001,-57.4005"/>
<text text-anchor="middle" x="134" y="-41" font-family="Helvetica,sans-Serif" font-size="10.00" fill="#000000"> film</text>
</g>
<!-- Node3 -->
<g id="node3" class="node">
<title>Node3</title>
<g id="a_node3"><a xlink:href="classlucid_1_1ScanlineImage.html" target="_top" xlink:title="lucid::ScanlineImage\l\&lt; float, 4 \&gt;">
<polygon fill="#ffffff" stroke="#000000" points="0,-134.5 0,-164.5 118,-164.5 118,-134.5 0,-134.5"/>
<text text-anchor="start" x="8" y="-152.5" font-family="Helvetica,sans-Serif" font-size="10.00" fill="#000000">lucid::ScanlineImage</text>
<text text-anchor="middle" x="59" y="-141.5" font-family="Helvetica,sans-Serif" font-size="10.00" fill="#000000">&lt; float, 4 &gt;</text>
</a>
</g>
</g>
<!-- Node3&#45;&gt;Node2 -->
<g id="edge2" class="edge">
<title>Node3&#45;&gt;Node2</title>
<path fill="none" stroke="#9a32cd" stroke-dasharray="5,2" d="M78.8822,-126.9772C90.7423,-113.5419 105.2082,-97.1548 114.2645,-86.8957"/>
<polygon fill="#9a32cd" stroke="#9a32cd" points="76.2549,-124.6648 72.2608,-134.478 81.5027,-129.2973 76.2549,-124.6648"/>
<text text-anchor="middle" x="108" y="-108" font-family="Helvetica,sans-Serif" font-size="10.00" fill="#000000"> img</text>
</g>
<!-- Node4 -->
<g id="node4" class="node">
<title>Node4</title>
<g id="a_node4"><a xlink:href="classlucid_1_1Vector.html" target="_top" xlink:title="lucid::Vector\&lt; std\l::array \&gt;">
<polygon fill="#ffffff" stroke="#000000" points="136.5,-134.5 136.5,-164.5 239.5,-164.5 239.5,-134.5 136.5,-134.5"/>
<text text-anchor="start" x="144.5" y="-152.5" font-family="Helvetica,sans-Serif" font-size="10.00" fill="#000000">lucid::Vector&lt; std</text>
<text text-anchor="middle" x="188" y="-141.5" font-family="Helvetica,sans-Serif" font-size="10.00" fill="#000000">::array &gt;</text>
</a>
</g>
</g>
<!-- Node4&#45;&gt;Node2 -->
<g id="edge3" class="edge">
<title>Node4&#45;&gt;Node2</title>
<path fill="none" stroke="#9a32cd" stroke-dasharray="5,2" d="M167.8071,-126.9772C155.7617,-113.5419 141.0698,-97.1548 131.872,-86.8957"/>
<polygon fill="#9a32cd" stroke="#9a32cd" points="165.2505,-129.3687 174.532,-134.478 170.4625,-124.6958 165.2505,-129.3687"/>
<text text-anchor="middle" x="166.5" y="-108" font-family="Helvetica,sans-Serif" font-size="10.00" fill="#000000"> res</text>
</g>
</g>
</svg>
