<?xml version="1.0" encoding="UTF-8" standalone="no"?>
<!DOCTYPE svg PUBLIC "-//W3C//DTD SVG 1.1//EN"
 "http://www.w3.org/Graphics/SVG/1.1/DTD/svg11.dtd">
<!-- Generated by graphviz version 2.40.1 (20161225.0304)
 -->
<!-- Title: lucid::Constant&lt; Scene, MaterialGetter &gt; Pages: 1 -->
<svg width="263pt" height="195pt"
 viewBox="0.00 0.00 263.00 195.00" xmlns="http://www.w3.org/2000/svg" xmlns:xlink="http://www.w3.org/1999/xlink">
<g id="graph0" class="graph" transform="scale(1 1) rotate(0) translate(4 191)">
<title>lucid::Constant&lt; Scene, MaterialGetter &gt;</title>
<polygon fill="#ffffff" stroke="transparent" points="-4,4 -4,-191 259,-191 259,4 -4,4"/>
<!-- Node1 -->
<g id="node1" class="node">
<title>Node1</title>
<polygon fill="#bfbfbf" stroke="#000000" points="14,-.5 14,-30.5 147,-30.5 147,-.5 14,-.5"/>
<text text-anchor="start" x="22" y="-18.5" font-family="Helvetica,sans-Serif" font-size="10.00" fill="#000000">lucid::Constant&lt; Scene,</text>
<text text-anchor="middle" x="80.5" y="-7.5" font-family="Helvetica,sans-Serif" font-size="10.00" fill="#000000"> MaterialGetter &gt;</text>
</g>
<!-- Node2 -->
<g id="node2" class="node">
<title>Node2</title>
<g id="a_node2"><a xlink:href="structlucid_1_1Ray__.html" target="_top" xlink:title="lucid::Ray_\&lt; std::array \&gt;">
<polygon fill="#ffffff" stroke="#000000" points="116,-78.5 116,-97.5 255,-97.5 255,-78.5 116,-78.5"/>
<text text-anchor="middle" x="185.5" y="-85.5" font-family="Helvetica,sans-Serif" font-size="10.00" fill="#000000">lucid::Ray_&lt; std::array &gt;</text>
</a>
</g>
</g>
<!-- Node2&#45;&gt;Node1 -->
<g id="edge1" class="edge">
<title>Node2&#45;&gt;Node1</title>
<path fill="none" stroke="#9a32cd" stroke-dasharray="5,2" d="M162.6918,-72.2515C144.8229,-59.9134 120.1171,-42.8547 102.4675,-30.668"/>
<polygon fill="#9a32cd" stroke="#9a32cd" points="161.1216,-75.4205 171.3392,-78.2223 165.0989,-69.6602 161.1216,-75.4205"/>
<text text-anchor="middle" x="151" y="-52" font-family="Helvetica,sans-Serif" font-size="10.00" fill="#000000"> ray</text>
</g>
<!-- Node3 -->
<g id="node3" class="node">
<title>Node3</title>
<g id="a_node3"><a xlink:href="classlucid_1_1Vector.html" target="_top" xlink:title="lucid::Vector\&lt; std\l::array \&gt;">
<polygon fill="#ffffff" stroke="#000000" points="0,-156.5 0,-186.5 103,-186.5 103,-156.5 0,-156.5"/>
<text text-anchor="start" x="8" y="-174.5" font-family="Helvetica,sans-Serif" font-size="10.00" fill="#000000">lucid::Vector&lt; std</text>
<text text-anchor="middle" x="51.5" y="-163.5" font-family="Helvetica,sans-Serif" font-size="10.00" fill="#000000">::array &gt;</text>
</a>
</g>
</g>
<!-- Node3&#45;&gt;Node1 -->
<g id="edge3" class="edge">
<title>Node3&#45;&gt;Node1</title>
<path fill="none" stroke="#9a32cd" stroke-dasharray="5,2" d="M45.636,-146.3304C42.2097,-127.2715 39.602,-100.6033 45.5,-78 50.0215,-60.672 60.5305,-43.0626 68.8605,-30.9711"/>
<polygon fill="#9a32cd" stroke="#9a32cd" points="42.2409,-147.2022 47.6322,-156.3227 49.1053,-145.8308 42.2409,-147.2022"/>
<text text-anchor="middle" x="76.5" y="-85.5" font-family="Helvetica,sans-Serif" font-size="10.00" fill="#000000"> sample_pos</text>
</g>
<!-- Node3&#45;&gt;Node2 -->
<g id="edge2" class="edge">
<title>Node3&#45;&gt;Node2</title>
<path fill="none" stroke="#9a32cd" stroke-dasharray="5,2" d="M84.6003,-150.8741C111.9181,-133.8514 149.4441,-110.4677 170.1754,-97.5493"/>
<polygon fill="#9a32cd" stroke="#9a32cd" points="82.4025,-148.1196 75.7664,-156.3788 86.1045,-154.0606 82.4025,-148.1196"/>
<text text-anchor="middle" x="153" y="-130" font-family="Helvetica,sans-Serif" font-size="10.00" fill="#000000"> origin</text>
<text text-anchor="middle" x="153" y="-119" font-family="Helvetica,sans-Serif" font-size="10.00" fill="#000000">dir</text>
</g>
</g>
</svg>
