<?xml version="1.0" encoding="UTF-8" standalone="no"?>
<!DOCTYPE svg PUBLIC "-//W3C//DTD SVG 1.1//EN"
 "http://www.w3.org/Graphics/SVG/1.1/DTD/svg11.dtd">
<!-- Generated by graphviz version 2.42.3 (20191010.1750)
 -->
<!-- Title: lucid::Constant&lt; Scene, MaterialGetter &gt; Pages: 1 -->
<svg width="239pt" height="195pt"
 viewBox="0.00 0.00 238.50 195.00" xmlns="http://www.w3.org/2000/svg" xmlns:xlink="http://www.w3.org/1999/xlink">
<g id="graph0" class="graph" transform="scale(1 1) rotate(0) translate(4 191)">
<title>lucid::Constant&lt; Scene, MaterialGetter &gt;</title>
<polygon fill="white" stroke="transparent" points="-4,4 -4,-191 234.5,-191 234.5,4 -4,4"/>
<!-- Node1 -->
<g id="node1" class="node">
<title>Node1</title>
<g id="a_node1"><a xlink:title=" ">
<polygon fill="#bfbfbf" stroke="black" points="12,-0.5 12,-30.5 134,-30.5 134,-0.5 12,-0.5"/>
<text text-anchor="start" x="20" y="-18.5" font-family="Helvetica,sans-Serif" font-size="10.00">lucid::Constant&lt; Scene,</text>
<text text-anchor="middle" x="73" y="-7.5" font-family="Helvetica,sans-Serif" font-size="10.00"> MaterialGetter &gt;</text>
</a>
</g>
</g>
<!-- Node2 -->
<g id="node2" class="node">
<title>Node2</title>
<g id="a_node2"><a xlink:href="structlucid_1_1Ray__.html" target="_top" xlink:title=" ">
<polygon fill="white" stroke="black" points="105.5,-78.5 105.5,-97.5 230.5,-97.5 230.5,-78.5 105.5,-78.5"/>
<text text-anchor="middle" x="168" y="-85.5" font-family="Helvetica,sans-Serif" font-size="10.00">lucid::Ray_&lt; std::array &gt;</text>
</a>
</g>
</g>
<!-- Node2&#45;&gt;Node1 -->
<g id="edge1" class="edge">
<title>Node2&#45;&gt;Node1</title>
<path fill="none" stroke="#9a32cd" stroke-dasharray="5,2" d="M147.96,-72.13C131.44,-59.87 108.18,-42.61 91.97,-30.58"/>
<polygon fill="#9a32cd" stroke="#9a32cd" points="146.24,-75.21 156.35,-78.36 150.41,-69.59 146.24,-75.21"/>
<text text-anchor="middle" x="137.5" y="-52" font-family="Helvetica,sans-Serif" font-size="10.00"> ray</text>
</g>
<!-- Node3 -->
<g id="node3" class="node">
<title>Node3</title>
<g id="a_node3"><a xlink:href="classlucid_1_1Vector.html" target="_top" xlink:title=" ">
<polygon fill="white" stroke="black" points="0,-156.5 0,-186.5 94,-186.5 94,-156.5 0,-156.5"/>
<text text-anchor="start" x="8" y="-174.5" font-family="Helvetica,sans-Serif" font-size="10.00">lucid::Vector&lt; std</text>
<text text-anchor="middle" x="47" y="-163.5" font-family="Helvetica,sans-Serif" font-size="10.00">::array &gt;</text>
</a>
</g>
</g>
<!-- Node3&#45;&gt;Node1 -->
<g id="edge3" class="edge">
<title>Node3&#45;&gt;Node1</title>
<path fill="none" stroke="#9a32cd" stroke-dasharray="5,2" d="M41.55,-146.63C38.16,-127.75 35.41,-100.84 41,-78 45.23,-60.7 55.27,-42.85 62.98,-30.86"/>
<polygon fill="#9a32cd" stroke="#9a32cd" points="38.12,-147.35 43.5,-156.48 44.99,-145.99 38.12,-147.35"/>
<text text-anchor="middle" x="69" y="-85.5" font-family="Helvetica,sans-Serif" font-size="10.00"> sample_pos</text>
</g>
<!-- Node3&#45;&gt;Node2 -->
<g id="edge2" class="edge">
<title>Node3&#45;&gt;Node2</title>
<path fill="none" stroke="#9a32cd" stroke-dasharray="5,2" d="M76.26,-150.79C101.46,-133.82 136.64,-110.12 155.26,-97.58"/>
<polygon fill="#9a32cd" stroke="#9a32cd" points="74.14,-148 67.8,-156.49 78.05,-153.81 74.14,-148"/>
<text text-anchor="middle" x="138.5" y="-130" font-family="Helvetica,sans-Serif" font-size="10.00"> origin</text>
<text text-anchor="middle" x="138.5" y="-119" font-family="Helvetica,sans-Serif" font-size="10.00">dir</text>
</g>
</g>
</svg>
