<?xml version="1.0" encoding="UTF-8" standalone="no"?>
<!DOCTYPE svg PUBLIC "-//W3C//DTD SVG 1.1//EN"
 "http://www.w3.org/Graphics/SVG/1.1/DTD/svg11.dtd">
<!-- Generated by graphviz version 2.40.1 (20161225.0304)
 -->
<!-- Title: lucid::window_scanline_iterator Pages: 1 -->
<svg width="547pt" height="102pt"
 viewBox="0.00 0.00 547.00 101.50" xmlns="http://www.w3.org/2000/svg" xmlns:xlink="http://www.w3.org/1999/xlink">
<g id="graph0" class="graph" transform="scale(1 1) rotate(0) translate(4 97.5)">
<title>lucid::window_scanline_iterator</title>
<polygon fill="#ffffff" stroke="transparent" points="-4,4 -4,-97.5 543,-97.5 543,4 -4,4"/>
<!-- Node1 -->
<g id="node1" class="node">
<title>Node1</title>
<polygon fill="#bfbfbf" stroke="#000000" points="410,-46.5 410,-76.5 539,-76.5 539,-46.5 410,-46.5"/>
<text text-anchor="start" x="418" y="-64.5" font-family="Helvetica,sans-Serif" font-size="10.00" fill="#000000">lucid::window_scanline</text>
<text text-anchor="middle" x="474.5" y="-53.5" font-family="Helvetica,sans-Serif" font-size="10.00" fill="#000000">_iterator</text>
</g>
<!-- Node2 -->
<g id="node2" class="node">
<title>Node2</title>
<g id="a_node2"><a xlink:href="structlucid_1_1scanline__iterator.html" target="_top" xlink:title="lucid::scanline_iterator">
<polygon fill="#ffffff" stroke="#000000" points="215,-74 215,-93 343,-93 343,-74 215,-74"/>
<text text-anchor="middle" x="279" y="-81" font-family="Helvetica,sans-Serif" font-size="10.00" fill="#000000">lucid::scanline_iterator</text>
</a>
</g>
</g>
<!-- Node2&#45;&gt;Node1 -->
<g id="edge1" class="edge">
<title>Node2&#45;&gt;Node1</title>
<path fill="none" stroke="#9a32cd" stroke-dasharray="5,2" d="M353.1976,-75.1504C371.7852,-73.0587 391.5809,-70.8311 409.6729,-68.7951"/>
<polygon fill="#9a32cd" stroke="#9a32cd" points="352.5599,-71.7 343.014,-76.2964 353.3427,-78.6561 352.5599,-71.7"/>
<text text-anchor="middle" x="376.5" y="-76.5" font-family="Helvetica,sans-Serif" font-size="10.00" fill="#000000"> iter</text>
</g>
<!-- Node3 -->
<g id="node3" class="node">
<title>Node3</title>
<g id="a_node3"><a xlink:href="classlucid_1_1Vector.html" target="_top" xlink:title="lucid::Vector\&lt; T, N,\l Container \&gt;">
<polygon fill="#ffffff" stroke="#000000" points="224,-24.5 224,-54.5 334,-54.5 334,-24.5 224,-24.5"/>
<text text-anchor="start" x="232" y="-42.5" font-family="Helvetica,sans-Serif" font-size="10.00" fill="#000000">lucid::Vector&lt; T, N,</text>
<text text-anchor="middle" x="279" y="-31.5" font-family="Helvetica,sans-Serif" font-size="10.00" fill="#000000"> Container &gt;</text>
</a>
</g>
</g>
<!-- Node3&#45;&gt;Node1 -->
<g id="edge2" class="edge">
<title>Node3&#45;&gt;Node1</title>
<path fill="none" stroke="#9a32cd" stroke-dasharray="5,2" d="M344.3679,-46.856C365.412,-49.2241 388.7134,-51.8463 409.7153,-54.2096"/>
<polygon fill="#9a32cd" stroke="#9a32cd" points="344.5672,-43.3564 334.2385,-45.7161 343.7844,-50.3125 344.5672,-43.3564"/>
<text text-anchor="middle" x="376.5" y="-54.5" font-family="Helvetica,sans-Serif" font-size="10.00" fill="#000000"> offset</text>
</g>
<!-- Node4 -->
<g id="node4" class="node">
<title>Node4</title>
<g id="a_node4"><a xlink:href="classlucid_1_1ImmutableVectorOperators.html" target="_top" xlink:title="lucid::ImmutableVectorOperators\l\&lt; T, N, Container, Vector \&gt;">
<polygon fill="#ffffff" stroke="#000000" points="0,-49.5 0,-79.5 178,-79.5 178,-49.5 0,-49.5"/>
<text text-anchor="start" x="8" y="-67.5" font-family="Helvetica,sans-Serif" font-size="10.00" fill="#000000">lucid::ImmutableVectorOperators</text>
<text text-anchor="middle" x="89" y="-56.5" font-family="Helvetica,sans-Serif" font-size="10.00" fill="#000000">&lt; T, N, Container, Vector &gt;</text>
</a>
</g>
</g>
<!-- Node4&#45;&gt;Node3 -->
<g id="edge3" class="edge">
<title>Node4&#45;&gt;Node3</title>
<path fill="none" stroke="#191970" d="M188.4214,-51.4182C200.6328,-49.8115 212.7466,-48.2175 223.9534,-46.743"/>
<polygon fill="#191970" stroke="#191970" points="187.6165,-47.9939 178.1586,-52.7686 188.5297,-54.9341 187.6165,-47.9939"/>
</g>
<!-- Node5 -->
<g id="node5" class="node">
<title>Node5</title>
<g id="a_node5"><a xlink:href="classlucid_1_1MutableVectorOperators.html" target="_top" xlink:title="lucid::MutableVectorOperators\l\&lt; T, N, Container, Vector \&gt;">
<polygon fill="#ffffff" stroke="#000000" points="7,-.5 7,-30.5 171,-30.5 171,-.5 7,-.5"/>
<text text-anchor="start" x="15" y="-18.5" font-family="Helvetica,sans-Serif" font-size="10.00" fill="#000000">lucid::MutableVectorOperators</text>
<text text-anchor="middle" x="89" y="-7.5" font-family="Helvetica,sans-Serif" font-size="10.00" fill="#000000">&lt; T, N, Container, Vector &gt;</text>
</a>
</g>
</g>
<!-- Node5&#45;&gt;Node3 -->
<g id="edge4" class="edge">
<title>Node5&#45;&gt;Node3</title>
<path fill="none" stroke="#191970" d="M181.2642,-27.1544C195.7995,-28.9905 210.4203,-30.8373 223.764,-32.5228"/>
<polygon fill="#191970" stroke="#191970" points="181.5915,-23.668 171.2317,-25.8872 180.7142,-30.6129 181.5915,-23.668"/>
</g>
</g>
</svg>
