<?xml version="1.0" encoding="UTF-8" standalone="no"?>
<!DOCTYPE svg PUBLIC "-//W3C//DTD SVG 1.1//EN"
 "http://www.w3.org/Graphics/SVG/1.1/DTD/svg11.dtd">
<!-- Generated by graphviz version 2.40.1 (20161225.0304)
 -->
<!-- Title: FilmCapture Pages: 1 -->
<svg width="824pt" height="110pt"
 viewBox="0.00 0.00 824.00 110.00" xmlns="http://www.w3.org/2000/svg" xmlns:xlink="http://www.w3.org/1999/xlink">
<g id="graph0" class="graph" transform="scale(1 1) rotate(0) translate(4 106)">
<title>FilmCapture</title>
<polygon fill="#ffffff" stroke="transparent" points="-4,4 -4,-106 820,-106 820,4 -4,4"/>
<!-- Node1 -->
<g id="node1" class="node">
<title>Node1</title>
<polygon fill="#bfbfbf" stroke="#000000" points="741,-41.5 741,-60.5 816,-60.5 816,-41.5 741,-41.5"/>
<text text-anchor="middle" x="778.5" y="-48.5" font-family="Helvetica,sans-Serif" font-size="10.00" fill="#000000">FilmCapture</text>
</g>
<!-- Node2 -->
<g id="node2" class="node">
<title>Node2</title>
<g id="a_node2"><a xlink:href="structlucid_1_1Film.html" target="_top" xlink:title="lucid::Film\&lt; Image \&gt;">
<polygon fill="#ffffff" stroke="#000000" points="564,-41.5 564,-60.5 683,-60.5 683,-41.5 564,-41.5"/>
<text text-anchor="middle" x="623.5" y="-48.5" font-family="Helvetica,sans-Serif" font-size="10.00" fill="#000000">lucid::Film&lt; Image &gt;</text>
</a>
</g>
</g>
<!-- Node2&#45;&gt;Node1 -->
<g id="edge1" class="edge">
<title>Node2&#45;&gt;Node1</title>
<path fill="none" stroke="#9a32cd" stroke-dasharray="5,2" d="M693.4637,-51C709.7175,-51 726.4176,-51 740.6679,-51"/>
<polygon fill="#9a32cd" stroke="#9a32cd" points="693.4271,-47.5001 683.427,-51 693.427,-54.5001 693.4271,-47.5001"/>
<text text-anchor="middle" x="712" y="-54" font-family="Helvetica,sans-Serif" font-size="10.00" fill="#000000"> film</text>
</g>
<!-- Node3 -->
<g id="node3" class="node">
<title>Node3</title>
<g id="a_node3"><a xlink:href="classlucid_1_1ScanlineImage.html" target="_top" xlink:title="lucid::ScanlineImage\l\&lt; float, 4 \&gt;">
<polygon fill="#ffffff" stroke="#000000" points="388,-10 388,-40 506,-40 506,-10 388,-10"/>
<text text-anchor="start" x="396" y="-28" font-family="Helvetica,sans-Serif" font-size="10.00" fill="#000000">lucid::ScanlineImage</text>
<text text-anchor="middle" x="447" y="-17" font-family="Helvetica,sans-Serif" font-size="10.00" fill="#000000">&lt; float, 4 &gt;</text>
</a>
</g>
</g>
<!-- Node3&#45;&gt;Node2 -->
<g id="edge2" class="edge">
<title>Node3&#45;&gt;Node2</title>
<path fill="none" stroke="#9a32cd" stroke-dasharray="5,2" d="M516.4139,-35.2253C532.0764,-37.5325 548.5693,-39.962 563.7923,-42.2045"/>
<polygon fill="#9a32cd" stroke="#9a32cd" points="516.6663,-31.7248 506.2629,-33.73 515.6461,-38.65 516.6663,-31.7248"/>
<text text-anchor="middle" x="535" y="-43" font-family="Helvetica,sans-Serif" font-size="10.00" fill="#000000"> img</text>
</g>
<!-- Node4 -->
<g id="node4" class="node">
<title>Node4</title>
<g id="a_node4"><a xlink:href="classlucid_1_1Vector.html" target="_top" xlink:title="lucid::Vector\&lt; std\l::array \&gt;">
<polygon fill="#ffffff" stroke="#000000" points="215,-36 215,-66 318,-66 318,-36 215,-36"/>
<text text-anchor="start" x="223" y="-54" font-family="Helvetica,sans-Serif" font-size="10.00" fill="#000000">lucid::Vector&lt; std</text>
<text text-anchor="middle" x="266.5" y="-43" font-family="Helvetica,sans-Serif" font-size="10.00" fill="#000000">::array &gt;</text>
</a>
</g>
</g>
<!-- Node4&#45;&gt;Node2 -->
<g id="edge6" class="edge">
<title>Node4&#45;&gt;Node2</title>
<path fill="none" stroke="#9a32cd" stroke-dasharray="5,2" d="M328.2557,-55.674C330.8713,-55.7989 333.4612,-55.9088 336,-56 373.646,-57.3524 351.0554,-60.5817 546,-55 551.7909,-54.8342 557.823,-54.6112 563.8518,-54.355"/>
<polygon fill="#9a32cd" stroke="#9a32cd" points="328.2678,-52.1697 318.0937,-55.1257 327.8906,-59.1595 328.2678,-52.1697"/>
<text text-anchor="middle" x="447" y="-61" font-family="Helvetica,sans-Serif" font-size="10.00" fill="#000000"> res</text>
</g>
<!-- Node4&#45;&gt;Node3 -->
<g id="edge3" class="edge">
<title>Node4&#45;&gt;Node3</title>
<path fill="none" stroke="#9a32cd" stroke-dasharray="5,2" d="M328.1414,-42.1209C347.4885,-39.3341 368.7921,-36.2654 387.9551,-33.5051"/>
<polygon fill="#9a32cd" stroke="#9a32cd" points="327.6229,-38.6594 318.2241,-43.5494 328.6209,-45.5879 327.6229,-38.6594"/>
<text text-anchor="middle" x="353" y="-44" font-family="Helvetica,sans-Serif" font-size="10.00" fill="#000000"> m_res</text>
</g>
<!-- Node5 -->
<g id="node5" class="node">
<title>Node5</title>
<g id="a_node5"><a xlink:href="classlucid_1_1ImmutableVectorOperators.html" target="_top" xlink:title="lucid::ImmutableVectorOperators\l\&lt; std::array, N, std::array,\l Vector \&gt;">
<polygon fill="#ffffff" stroke="#000000" points="0,-60.5 0,-101.5 178,-101.5 178,-60.5 0,-60.5"/>
<text text-anchor="start" x="8" y="-89.5" font-family="Helvetica,sans-Serif" font-size="10.00" fill="#000000">lucid::ImmutableVectorOperators</text>
<text text-anchor="start" x="8" y="-78.5" font-family="Helvetica,sans-Serif" font-size="10.00" fill="#000000">&lt; std::array, N, std::array,</text>
<text text-anchor="middle" x="89" y="-67.5" font-family="Helvetica,sans-Serif" font-size="10.00" fill="#000000"> Vector &gt;</text>
</a>
</g>
</g>
<!-- Node5&#45;&gt;Node4 -->
<g id="edge4" class="edge">
<title>Node5&#45;&gt;Node4</title>
<path fill="none" stroke="#191970" d="M188.0531,-64.2586C197.2718,-62.7005 206.3402,-61.1678 214.8532,-59.729"/>
<polygon fill="#191970" stroke="#191970" points="187.2869,-60.8384 178.01,-65.9561 188.4535,-67.7405 187.2869,-60.8384"/>
</g>
<!-- Node6 -->
<g id="node6" class="node">
<title>Node6</title>
<g id="a_node6"><a xlink:href="classlucid_1_1MutableVectorOperators.html" target="_top" xlink:title="lucid::MutableVectorOperators\l\&lt; std::array, N, std::array,\l Vector \&gt;">
<polygon fill="#ffffff" stroke="#000000" points="7,-.5 7,-41.5 171,-41.5 171,-.5 7,-.5"/>
<text text-anchor="start" x="15" y="-29.5" font-family="Helvetica,sans-Serif" font-size="10.00" fill="#000000">lucid::MutableVectorOperators</text>
<text text-anchor="start" x="15" y="-18.5" font-family="Helvetica,sans-Serif" font-size="10.00" fill="#000000">&lt; std::array, N, std::array,</text>
<text text-anchor="middle" x="89" y="-7.5" font-family="Helvetica,sans-Serif" font-size="10.00" fill="#000000"> Vector &gt;</text>
</a>
</g>
</g>
<!-- Node6&#45;&gt;Node4 -->
<g id="edge5" class="edge">
<title>Node6&#45;&gt;Node4</title>
<path fill="none" stroke="#191970" d="M181.3816,-36.6138C192.9033,-38.5611 204.3433,-40.4946 214.9231,-42.2828"/>
<polygon fill="#191970" stroke="#191970" points="181.6984,-33.1178 171.2549,-34.9022 180.5318,-40.0199 181.6984,-33.1178"/>
</g>
</g>
</svg>
