<?xml version="1.0" encoding="UTF-8" standalone="no"?>
<!DOCTYPE svg PUBLIC "-//W3C//DTD SVG 1.1//EN"
 "http://www.w3.org/Graphics/SVG/1.1/DTD/svg11.dtd">
<!-- Generated by graphviz version 2.40.1 (20161225.0304)
 -->
<!-- Title: lucid::Intersection_&lt; Container &gt; Pages: 1 -->
<svg width="154pt" height="106pt"
 viewBox="0.00 0.00 154.00 106.00" xmlns="http://www.w3.org/2000/svg" xmlns:xlink="http://www.w3.org/1999/xlink">
<g id="graph0" class="graph" transform="scale(1 1) rotate(0) translate(4 102)">
<title>lucid::Intersection_&lt; Container &gt;</title>
<polygon fill="#ffffff" stroke="transparent" points="-4,4 -4,-102 150,-102 150,4 -4,4"/>
<!-- Node1 -->
<g id="node1" class="node">
<title>Node1</title>
<polygon fill="#bfbfbf" stroke="#000000" points="21,-.5 21,-30.5 125,-30.5 125,-.5 21,-.5"/>
<text text-anchor="start" x="29" y="-18.5" font-family="Helvetica,sans-Serif" font-size="10.00" fill="#000000">lucid::Intersection</text>
<text text-anchor="middle" x="73" y="-7.5" font-family="Helvetica,sans-Serif" font-size="10.00" fill="#000000">_&lt; Container &gt;</text>
</g>
<!-- Node2 -->
<g id="node2" class="node">
<title>Node2</title>
<g id="a_node2"><a xlink:href="classlucid_1_1Vector.html" target="_top" xlink:title="lucid::Vector\&lt; Container \&gt;">
<polygon fill="#ffffff" stroke="#000000" points="0,-78.5 0,-97.5 146,-97.5 146,-78.5 0,-78.5"/>
<text text-anchor="middle" x="73" y="-85.5" font-family="Helvetica,sans-Serif" font-size="10.00" fill="#000000">lucid::Vector&lt; Container &gt;</text>
</a>
</g>
</g>
<!-- Node2&#45;&gt;Node1 -->
<g id="edge1" class="edge">
<title>Node2&#45;&gt;Node1</title>
<path fill="none" stroke="#9a32cd" stroke-dasharray="5,2" d="M73,-68.0177C73,-56.2164 73,-41.513 73,-30.668"/>
<polygon fill="#9a32cd" stroke="#9a32cd" points="69.5001,-68.2223 73,-78.2223 76.5001,-68.2224 69.5001,-68.2223"/>
<text text-anchor="middle" x="79.5" y="-52" font-family="Helvetica,sans-Serif" font-size="10.00" fill="#000000"> st</text>
</g>
</g>
</svg>
