<?xml version="1.0" encoding="UTF-8" standalone="no"?>
<!DOCTYPE svg PUBLIC "-//W3C//DTD SVG 1.1//EN"
 "http://www.w3.org/Graphics/SVG/1.1/DTD/svg11.dtd">
<!-- Generated by graphviz version 2.42.3 (20191010.1750)
 -->
<!-- Title: CameraCapture Pages: 1 -->
<svg width="212pt" height="184pt"
 viewBox="0.00 0.00 212.00 184.00" xmlns="http://www.w3.org/2000/svg" xmlns:xlink="http://www.w3.org/1999/xlink">
<g id="graph0" class="graph" transform="scale(1 1) rotate(0) translate(4 180)">
<title>CameraCapture</title>
<polygon fill="white" stroke="transparent" points="-4,4 -4,-180 208,-180 208,4 -4,4"/>
<!-- Node1 -->
<g id="node1" class="node">
<title>Node1</title>
<g id="a_node1"><a xlink:title=" ">
<polygon fill="#bfbfbf" stroke="black" points="58,-0.5 58,-19.5 144,-19.5 144,-0.5 58,-0.5"/>
<text text-anchor="middle" x="101" y="-7.5" font-family="Helvetica,sans-Serif" font-size="10.00">CameraCapture</text>
</a>
</g>
</g>
<!-- Node2 -->
<g id="node2" class="node">
<title>Node2</title>
<g id="a_node2"><a xlink:href="structlucid_1_1perspective_1_1shoot.html" target="_top" xlink:title=" ">
<polygon fill="white" stroke="black" points="54.5,-67.5 54.5,-97.5 147.5,-97.5 147.5,-67.5 54.5,-67.5"/>
<text text-anchor="start" x="62.5" y="-85.5" font-family="Helvetica,sans-Serif" font-size="10.00">lucid::perspective</text>
<text text-anchor="middle" x="101" y="-74.5" font-family="Helvetica,sans-Serif" font-size="10.00">::shoot</text>
</a>
</g>
</g>
<!-- Node2&#45;&gt;Node1 -->
<g id="edge1" class="edge">
<title>Node2&#45;&gt;Node1</title>
<path fill="none" stroke="#9a32cd" stroke-dasharray="5,2" d="M101,-57.09C101,-44.21 101,-29.2 101,-19.89"/>
<polygon fill="#9a32cd" stroke="#9a32cd" points="97.5,-57.23 101,-67.23 104.5,-57.23 97.5,-57.23"/>
<text text-anchor="middle" x="112" y="-41" font-family="Helvetica,sans-Serif" font-size="10.00"> cam</text>
</g>
<!-- Node3 -->
<g id="node3" class="node">
<title>Node3</title>
<g id="a_node3"><a xlink:href="classlucid_1_1Matrix.html" target="_top" xlink:title=" ">
<polygon fill="white" stroke="black" points="0,-145.5 0,-175.5 92,-175.5 92,-145.5 0,-145.5"/>
<text text-anchor="start" x="8" y="-163.5" font-family="Helvetica,sans-Serif" font-size="10.00">lucid::Matrix&lt; std</text>
<text text-anchor="middle" x="46" y="-152.5" font-family="Helvetica,sans-Serif" font-size="10.00">::array &gt;</text>
</a>
</g>
</g>
<!-- Node3&#45;&gt;Node2 -->
<g id="edge2" class="edge">
<title>Node3&#45;&gt;Node2</title>
<path fill="none" stroke="#9a32cd" stroke-dasharray="5,2" d="M62.33,-136.94C71.52,-124.23 82.72,-108.75 90.7,-97.73"/>
<polygon fill="#9a32cd" stroke="#9a32cd" points="59.37,-135.05 56.35,-145.2 65.04,-139.16 59.37,-135.05"/>
<text text-anchor="middle" x="99.5" y="-119" font-family="Helvetica,sans-Serif" font-size="10.00"> transform</text>
</g>
<!-- Node4 -->
<g id="node4" class="node">
<title>Node4</title>
<g id="a_node4"><a xlink:href="classlucid_1_1Vector.html" target="_top" xlink:title=" ">
<polygon fill="white" stroke="black" points="110,-145.5 110,-175.5 204,-175.5 204,-145.5 110,-145.5"/>
<text text-anchor="start" x="118" y="-163.5" font-family="Helvetica,sans-Serif" font-size="10.00">lucid::Vector&lt; std</text>
<text text-anchor="middle" x="157" y="-152.5" font-family="Helvetica,sans-Serif" font-size="10.00">::array &gt;</text>
</a>
</g>
</g>
<!-- Node4&#45;&gt;Node2 -->
<g id="edge3" class="edge">
<title>Node4&#45;&gt;Node2</title>
<path fill="none" stroke="#9a32cd" stroke-dasharray="5,2" d="M141.29,-137.12C136.44,-130.31 131.04,-122.81 126,-116 121.51,-109.94 116.45,-103.32 112.07,-97.65"/>
<polygon fill="#9a32cd" stroke="#9a32cd" points="138.44,-139.16 147.08,-145.3 144.16,-135.12 138.44,-139.16"/>
<text text-anchor="middle" x="161.5" y="-119" font-family="Helvetica,sans-Serif" font-size="10.00"> tan_fov_half</text>
</g>
</g>
</svg>
