<?xml version="1.0" encoding="UTF-8" standalone="no"?>
<!DOCTYPE svg PUBLIC "-//W3C//DTD SVG 1.1//EN"
 "http://www.w3.org/Graphics/SVG/1.1/DTD/svg11.dtd">
<!-- Generated by graphviz version 2.42.3 (20191010.1750)
 -->
<!-- Title: FilmCapture Pages: 1 -->
<svg width="228pt" height="173pt"
 viewBox="0.00 0.00 227.50 173.00" xmlns="http://www.w3.org/2000/svg" xmlns:xlink="http://www.w3.org/1999/xlink">
<g id="graph0" class="graph" transform="scale(1 1) rotate(0) translate(4 169)">
<title>FilmCapture</title>
<polygon fill="white" stroke="transparent" points="-4,4 -4,-169 223.5,-169 223.5,4 -4,4"/>
<!-- Node1 -->
<g id="node1" class="node">
<title>Node1</title>
<g id="a_node1"><a xlink:title=" ">
<polygon fill="#bfbfbf" stroke="black" points="77.5,-0.5 77.5,-19.5 147.5,-19.5 147.5,-0.5 77.5,-0.5"/>
<text text-anchor="middle" x="112.5" y="-7.5" font-family="Helvetica,sans-Serif" font-size="10.00">FilmCapture</text>
</a>
</g>
</g>
<!-- Node2 -->
<g id="node2" class="node">
<title>Node2</title>
<g id="a_node2"><a xlink:href="structlucid_1_1Film.html" target="_top" xlink:title=" ">
<polygon fill="white" stroke="black" points="59,-67.5 59,-86.5 166,-86.5 166,-67.5 59,-67.5"/>
<text text-anchor="middle" x="112.5" y="-74.5" font-family="Helvetica,sans-Serif" font-size="10.00">lucid::Film&lt; Image &gt;</text>
</a>
</g>
</g>
<!-- Node2&#45;&gt;Node1 -->
<g id="edge1" class="edge">
<title>Node2&#45;&gt;Node1</title>
<path fill="none" stroke="#9a32cd" stroke-dasharray="5,2" d="M112.5,-57.04C112.5,-44.67 112.5,-29.12 112.5,-19.63"/>
<polygon fill="#9a32cd" stroke="#9a32cd" points="109,-57.23 112.5,-67.23 116,-57.23 109,-57.23"/>
<text text-anchor="middle" x="122" y="-41" font-family="Helvetica,sans-Serif" font-size="10.00"> film</text>
</g>
<!-- Node3 -->
<g id="node3" class="node">
<title>Node3</title>
<g id="a_node3"><a xlink:href="classlucid_1_1ScanlineImage.html" target="_top" xlink:title=" ">
<polygon fill="white" stroke="black" points="0,-134.5 0,-164.5 107,-164.5 107,-134.5 0,-134.5"/>
<text text-anchor="start" x="8" y="-152.5" font-family="Helvetica,sans-Serif" font-size="10.00">lucid::ScanlineImage</text>
<text text-anchor="middle" x="53.5" y="-141.5" font-family="Helvetica,sans-Serif" font-size="10.00">&lt; float, 4 &gt;</text>
</a>
</g>
</g>
<!-- Node3&#45;&gt;Node2 -->
<g id="edge2" class="edge">
<title>Node3&#45;&gt;Node2</title>
<path fill="none" stroke="#9a32cd" stroke-dasharray="5,2" d="M72.01,-126.38C83.18,-113.04 96.8,-96.76 105.06,-86.89"/>
<polygon fill="#9a32cd" stroke="#9a32cd" points="69.17,-124.32 65.44,-134.23 74.54,-128.81 69.17,-124.32"/>
<text text-anchor="middle" x="98" y="-108" font-family="Helvetica,sans-Serif" font-size="10.00"> img</text>
</g>
<!-- Node4 -->
<g id="node4" class="node">
<title>Node4</title>
<g id="a_node4"><a xlink:href="classlucid_1_1Vector.html" target="_top" xlink:title=" ">
<polygon fill="white" stroke="black" points="125.5,-134.5 125.5,-164.5 219.5,-164.5 219.5,-134.5 125.5,-134.5"/>
<text text-anchor="start" x="133.5" y="-152.5" font-family="Helvetica,sans-Serif" font-size="10.00">lucid::Vector&lt; std</text>
<text text-anchor="middle" x="172.5" y="-141.5" font-family="Helvetica,sans-Serif" font-size="10.00">::array &gt;</text>
</a>
</g>
</g>
<!-- Node4&#45;&gt;Node2 -->
<g id="edge3" class="edge">
<title>Node4&#45;&gt;Node2</title>
<path fill="none" stroke="#9a32cd" stroke-dasharray="5,2" d="M153.68,-126.38C142.32,-113.04 128.46,-96.76 120.07,-86.89"/>
<polygon fill="#9a32cd" stroke="#9a32cd" points="151.21,-128.89 160.36,-134.23 156.54,-124.35 151.21,-128.89"/>
<text text-anchor="middle" x="152" y="-108" font-family="Helvetica,sans-Serif" font-size="10.00"> res</text>
</g>
</g>
</svg>
