<?xml version="1.0" encoding="UTF-8" standalone="no"?>
<!DOCTYPE svg PUBLIC "-//W3C//DTD SVG 1.1//EN"
 "http://www.w3.org/Graphics/SVG/1.1/DTD/svg11.dtd">
<!-- Generated by graphviz version 2.40.1 (20161225.0304)
 -->
<!-- Title: lucid::PathTracer_&lt; RandomEngine, Scene, MaterialGetter &gt; Pages: 1 -->
<svg width="263pt" height="206pt"
 viewBox="0.00 0.00 263.00 206.00" xmlns="http://www.w3.org/2000/svg" xmlns:xlink="http://www.w3.org/1999/xlink">
<g id="graph0" class="graph" transform="scale(1 1) rotate(0) translate(4 202)">
<title>lucid::PathTracer_&lt; RandomEngine, Scene, MaterialGetter &gt;</title>
<polygon fill="#ffffff" stroke="transparent" points="-4,4 -4,-202 259,-202 259,4 -4,4"/>
<!-- Node1 -->
<g id="node1" class="node">
<title>Node1</title>
<polygon fill="#bfbfbf" stroke="#000000" points="10.5,-.5 10.5,-41.5 150.5,-41.5 150.5,-.5 10.5,-.5"/>
<text text-anchor="start" x="18.5" y="-29.5" font-family="Helvetica,sans-Serif" font-size="10.00" fill="#000000">lucid::PathTracer_</text>
<text text-anchor="start" x="18.5" y="-18.5" font-family="Helvetica,sans-Serif" font-size="10.00" fill="#000000">&lt; RandomEngine, Scene,</text>
<text text-anchor="middle" x="80.5" y="-7.5" font-family="Helvetica,sans-Serif" font-size="10.00" fill="#000000"> MaterialGetter &gt;</text>
</g>
<!-- Node2 -->
<g id="node2" class="node">
<title>Node2</title>
<g id="a_node2"><a xlink:href="structlucid_1_1Ray__.html" target="_top" xlink:title="lucid::Ray_\&lt; std::array \&gt;">
<polygon fill="#ffffff" stroke="#000000" points="116,-89.5 116,-108.5 255,-108.5 255,-89.5 116,-89.5"/>
<text text-anchor="middle" x="185.5" y="-96.5" font-family="Helvetica,sans-Serif" font-size="10.00" fill="#000000">lucid::Ray_&lt; std::array &gt;</text>
</a>
</g>
</g>
<!-- Node2&#45;&gt;Node1 -->
<g id="edge1" class="edge">
<title>Node2&#45;&gt;Node1</title>
<path fill="none" stroke="#9a32cd" stroke-dasharray="5,2" d="M164.4031,-83.328C148.329,-71.3873 126.0457,-54.8339 108.4829,-41.7873"/>
<polygon fill="#9a32cd" stroke="#9a32cd" points="162.5103,-86.282 172.6249,-89.4357 166.6846,-80.6628 162.5103,-86.282"/>
<text text-anchor="middle" x="154" y="-63" font-family="Helvetica,sans-Serif" font-size="10.00" fill="#000000"> ray</text>
</g>
<!-- Node3 -->
<g id="node3" class="node">
<title>Node3</title>
<g id="a_node3"><a xlink:href="classlucid_1_1Vector.html" target="_top" xlink:title="lucid::Vector\&lt; std\l::array \&gt;">
<polygon fill="#ffffff" stroke="#000000" points="0,-167.5 0,-197.5 103,-197.5 103,-167.5 0,-167.5"/>
<text text-anchor="start" x="8" y="-185.5" font-family="Helvetica,sans-Serif" font-size="10.00" fill="#000000">lucid::Vector&lt; std</text>
<text text-anchor="middle" x="51.5" y="-174.5" font-family="Helvetica,sans-Serif" font-size="10.00" fill="#000000">::array &gt;</text>
</a>
</g>
</g>
<!-- Node3&#45;&gt;Node1 -->
<g id="edge3" class="edge">
<title>Node3&#45;&gt;Node1</title>
<path fill="none" stroke="#9a32cd" stroke-dasharray="5,2" d="M45.8662,-157.3883C42.5592,-138.3594 40.0001,-111.7035 45.5,-89 49.5952,-72.0953 58.6641,-54.6853 66.5442,-41.7138"/>
<polygon fill="#9a32cd" stroke="#9a32cd" points="42.4592,-158.2055 47.789,-167.3622 49.3326,-156.8804 42.4592,-158.2055"/>
<text text-anchor="middle" x="76.5" y="-96.5" font-family="Helvetica,sans-Serif" font-size="10.00" fill="#000000"> sample_pos</text>
</g>
<!-- Node3&#45;&gt;Node2 -->
<g id="edge2" class="edge">
<title>Node3&#45;&gt;Node2</title>
<path fill="none" stroke="#9a32cd" stroke-dasharray="5,2" d="M84.6003,-161.8741C111.9181,-144.8514 149.4441,-121.4677 170.1754,-108.5493"/>
<polygon fill="#9a32cd" stroke="#9a32cd" points="82.4025,-159.1196 75.7664,-167.3788 86.1045,-165.0606 82.4025,-159.1196"/>
<text text-anchor="middle" x="153" y="-141" font-family="Helvetica,sans-Serif" font-size="10.00" fill="#000000"> origin</text>
<text text-anchor="middle" x="153" y="-130" font-family="Helvetica,sans-Serif" font-size="10.00" fill="#000000">dir</text>
</g>
</g>
</svg>
