<?xml version="1.0" encoding="UTF-8" standalone="no"?>
<!DOCTYPE svg PUBLIC "-//W3C//DTD SVG 1.1//EN"
 "http://www.w3.org/Graphics/SVG/1.1/DTD/svg11.dtd">
<!-- Generated by graphviz version 2.40.1 (20161225.0304)
 -->
<!-- Title: lucid::Intersection_&lt; Container &gt; Pages: 1 -->
<svg width="522pt" height="110pt"
 viewBox="0.00 0.00 522.00 110.00" xmlns="http://www.w3.org/2000/svg" xmlns:xlink="http://www.w3.org/1999/xlink">
<g id="graph0" class="graph" transform="scale(1 1) rotate(0) translate(4 106)">
<title>lucid::Intersection_&lt; Container &gt;</title>
<polygon fill="#ffffff" stroke="transparent" points="-4,4 -4,-106 518,-106 518,4 -4,4"/>
<!-- Node1 -->
<g id="node1" class="node">
<title>Node1</title>
<polygon fill="#bfbfbf" stroke="#000000" points="410,-36 410,-66 514,-66 514,-36 410,-36"/>
<text text-anchor="start" x="418" y="-54" font-family="Helvetica,sans-Serif" font-size="10.00" fill="#000000">lucid::Intersection</text>
<text text-anchor="middle" x="462" y="-43" font-family="Helvetica,sans-Serif" font-size="10.00" fill="#000000">_&lt; Container &gt;</text>
</g>
<!-- Node2 -->
<g id="node2" class="node">
<title>Node2</title>
<g id="a_node2"><a xlink:href="classlucid_1_1Vector.html" target="_top" xlink:title="lucid::Vector\&lt; Container \&gt;">
<polygon fill="#ffffff" stroke="#000000" points="215,-41.5 215,-60.5 361,-60.5 361,-41.5 215,-41.5"/>
<text text-anchor="middle" x="288" y="-48.5" font-family="Helvetica,sans-Serif" font-size="10.00" fill="#000000">lucid::Vector&lt; Container &gt;</text>
</a>
</g>
</g>
<!-- Node2&#45;&gt;Node1 -->
<g id="edge1" class="edge">
<title>Node2&#45;&gt;Node1</title>
<path fill="none" stroke="#9a32cd" stroke-dasharray="5,2" d="M371.0735,-51C384.2574,-51 397.5617,-51 409.7722,-51"/>
<polygon fill="#9a32cd" stroke="#9a32cd" points="371.0354,-47.5001 361.0354,-51 371.0353,-54.5001 371.0354,-47.5001"/>
<text text-anchor="middle" x="385.5" y="-54" font-family="Helvetica,sans-Serif" font-size="10.00" fill="#000000"> st</text>
</g>
<!-- Node3 -->
<g id="node3" class="node">
<title>Node3</title>
<g id="a_node3"><a xlink:href="classlucid_1_1ImmutableVectorOperators.html" target="_top" xlink:title="lucid::ImmutableVectorOperators\l\&lt; Container, N, std::array,\l Vector \&gt;">
<polygon fill="#ffffff" stroke="#000000" points="0,-60.5 0,-101.5 178,-101.5 178,-60.5 0,-60.5"/>
<text text-anchor="start" x="8" y="-89.5" font-family="Helvetica,sans-Serif" font-size="10.00" fill="#000000">lucid::ImmutableVectorOperators</text>
<text text-anchor="start" x="8" y="-78.5" font-family="Helvetica,sans-Serif" font-size="10.00" fill="#000000">&lt; Container, N, std::array,</text>
<text text-anchor="middle" x="89" y="-67.5" font-family="Helvetica,sans-Serif" font-size="10.00" fill="#000000"> Vector &gt;</text>
</a>
</g>
</g>
<!-- Node3&#45;&gt;Node2 -->
<g id="edge2" class="edge">
<title>Node3&#45;&gt;Node2</title>
<path fill="none" stroke="#191970" d="M188.0752,-66.064C200.6307,-64.1713 213.1951,-62.2771 224.969,-60.5022"/>
<polygon fill="#191970" stroke="#191970" points="187.3896,-62.6278 178.0232,-67.5794 188.4332,-69.5495 187.3896,-62.6278"/>
</g>
<!-- Node4 -->
<g id="node4" class="node">
<title>Node4</title>
<g id="a_node4"><a xlink:href="classlucid_1_1MutableVectorOperators.html" target="_top" xlink:title="lucid::MutableVectorOperators\l\&lt; Container, N, std::array,\l Vector \&gt;">
<polygon fill="#ffffff" stroke="#000000" points="7,-.5 7,-41.5 171,-41.5 171,-.5 7,-.5"/>
<text text-anchor="start" x="15" y="-29.5" font-family="Helvetica,sans-Serif" font-size="10.00" fill="#000000">lucid::MutableVectorOperators</text>
<text text-anchor="start" x="15" y="-18.5" font-family="Helvetica,sans-Serif" font-size="10.00" fill="#000000">&lt; Container, N, std::array,</text>
<text text-anchor="middle" x="89" y="-7.5" font-family="Helvetica,sans-Serif" font-size="10.00" fill="#000000"> Vector &gt;</text>
</a>
</g>
</g>
<!-- Node4&#45;&gt;Node2 -->
<g id="edge3" class="edge">
<title>Node4&#45;&gt;Node2</title>
<path fill="none" stroke="#191970" d="M181.2739,-34.9106C196.0568,-37.1392 211.0536,-39.4 224.9497,-41.4949"/>
<polygon fill="#191970" stroke="#191970" points="181.4999,-31.4052 171.0898,-33.3754 180.4563,-38.327 181.4999,-31.4052"/>
</g>
</g>
</svg>
