<?xml version="1.0" encoding="UTF-8" standalone="no"?>
<!DOCTYPE svg PUBLIC "-//W3C//DTD SVG 1.1//EN"
 "http://www.w3.org/Graphics/SVG/1.1/DTD/svg11.dtd">
<!-- Generated by graphviz version 2.40.1 (20161225.0304)
 -->
<!-- Title: lucid::perspective::shoot Pages: 1 -->
<svg width="232pt" height="117pt"
 viewBox="0.00 0.00 232.00 117.00" xmlns="http://www.w3.org/2000/svg" xmlns:xlink="http://www.w3.org/1999/xlink">
<g id="graph0" class="graph" transform="scale(1 1) rotate(0) translate(4 113)">
<title>lucid::perspective::shoot</title>
<polygon fill="#ffffff" stroke="transparent" points="-4,4 -4,-113 228,-113 228,4 -4,4"/>
<!-- Node1 -->
<g id="node1" class="node">
<title>Node1</title>
<polygon fill="#bfbfbf" stroke="#000000" points="60,-.5 60,-30.5 163,-30.5 163,-.5 60,-.5"/>
<text text-anchor="start" x="68" y="-18.5" font-family="Helvetica,sans-Serif" font-size="10.00" fill="#000000">lucid::perspective</text>
<text text-anchor="middle" x="111.5" y="-7.5" font-family="Helvetica,sans-Serif" font-size="10.00" fill="#000000">::shoot</text>
</g>
<!-- Node2 -->
<g id="node2" class="node">
<title>Node2</title>
<g id="a_node2"><a xlink:href="classlucid_1_1Matrix.html" target="_top" xlink:title="lucid::Matrix\&lt; std\l::array \&gt;">
<polygon fill="#ffffff" stroke="#000000" points="0,-78.5 0,-108.5 103,-108.5 103,-78.5 0,-78.5"/>
<text text-anchor="start" x="8" y="-96.5" font-family="Helvetica,sans-Serif" font-size="10.00" fill="#000000">lucid::Matrix&lt; std</text>
<text text-anchor="middle" x="51.5" y="-85.5" font-family="Helvetica,sans-Serif" font-size="10.00" fill="#000000">::array &gt;</text>
</a>
</g>
</g>
<!-- Node2&#45;&gt;Node1 -->
<g id="edge1" class="edge">
<title>Node2&#45;&gt;Node1</title>
<path fill="none" stroke="#9a32cd" stroke-dasharray="5,2" d="M69.1834,-70.5116C79.0466,-57.6894 91.0593,-42.0729 99.7622,-30.7592"/>
<polygon fill="#9a32cd" stroke="#9a32cd" points="66.3916,-68.4006 63.0686,-78.4608 71.9399,-72.6686 66.3916,-68.4006"/>
<text text-anchor="middle" x="111.5" y="-52" font-family="Helvetica,sans-Serif" font-size="10.00" fill="#000000"> transform</text>
</g>
<!-- Node3 -->
<g id="node3" class="node">
<title>Node3</title>
<g id="a_node3"><a xlink:href="classlucid_1_1Vector.html" target="_top" xlink:title="lucid::Vector\&lt; std\l::array \&gt;">
<polygon fill="#ffffff" stroke="#000000" points="121,-78.5 121,-108.5 224,-108.5 224,-78.5 121,-78.5"/>
<text text-anchor="start" x="129" y="-96.5" font-family="Helvetica,sans-Serif" font-size="10.00" fill="#000000">lucid::Vector&lt; std</text>
<text text-anchor="middle" x="172.5" y="-85.5" font-family="Helvetica,sans-Serif" font-size="10.00" fill="#000000">::array &gt;</text>
</a>
</g>
</g>
<!-- Node3&#45;&gt;Node1 -->
<g id="edge2" class="edge">
<title>Node3&#45;&gt;Node1</title>
<path fill="none" stroke="#9a32cd" stroke-dasharray="5,2" d="M156.9332,-70.0153C152.1507,-63.1181 146.7582,-55.6452 141.5,-49 136.5586,-42.7552 130.7924,-36.1685 125.643,-30.5038"/>
<polygon fill="#9a32cd" stroke="#9a32cd" points="154.0831,-72.0482 162.6088,-78.3382 159.8665,-68.1044 154.0831,-72.0482"/>
<text text-anchor="middle" x="181.5" y="-52" font-family="Helvetica,sans-Serif" font-size="10.00" fill="#000000"> tan_fov_half</text>
</g>
</g>
</svg>
