<?xml version="1.0" encoding="UTF-8" standalone="no"?>
<!DOCTYPE svg PUBLIC "-//W3C//DTD SVG 1.1//EN"
 "http://www.w3.org/Graphics/SVG/1.1/DTD/svg11.dtd">
<!-- Generated by graphviz version 2.40.1 (20161225.0304)
 -->
<!-- Title: lucid::Ray_&lt; Container &gt; Pages: 1 -->
<svg width="594pt" height="170pt"
 viewBox="0.00 0.00 594.00 170.00" xmlns="http://www.w3.org/2000/svg" xmlns:xlink="http://www.w3.org/1999/xlink">
<g id="graph0" class="graph" transform="scale(1 1) rotate(0) translate(4 166)">
<title>lucid::Ray_&lt; Container &gt;</title>
<polygon fill="#ffffff" stroke="transparent" points="-4,4 -4,-166 590,-166 590,4 -4,4"/>
<!-- Node1 -->
<g id="node1" class="node">
<title>Node1</title>
<polygon fill="#bfbfbf" stroke="#000000" points="446,-41.5 446,-60.5 586,-60.5 586,-41.5 446,-41.5"/>
<text text-anchor="middle" x="516" y="-48.5" font-family="Helvetica,sans-Serif" font-size="10.00" fill="#000000">lucid::Ray_&lt; Container &gt;</text>
</g>
<!-- Node2 -->
<g id="node2" class="node">
<title>Node2</title>
<g id="a_node2"><a xlink:href="classlucid_1_1PointN__.html" target="_top" xlink:title="lucid::PointN_\&lt; Container \&gt;">
<polygon fill="#ffffff" stroke="#000000" points="220.5,-71.5 220.5,-90.5 373.5,-90.5 373.5,-71.5 220.5,-71.5"/>
<text text-anchor="middle" x="297" y="-78.5" font-family="Helvetica,sans-Serif" font-size="10.00" fill="#000000">lucid::PointN_&lt; Container &gt;</text>
</a>
</g>
</g>
<!-- Node2&#45;&gt;Node1 -->
<g id="edge1" class="edge">
<title>Node2&#45;&gt;Node1</title>
<path fill="none" stroke="#9a32cd" stroke-dasharray="5,2" d="M376.6277,-70.0921C399.5411,-66.9533 424.3443,-63.5556 446.5872,-60.5086"/>
<polygon fill="#9a32cd" stroke="#9a32cd" points="376.0263,-66.6417 366.5939,-71.4666 376.9764,-73.5769 376.0263,-66.6417"/>
<text text-anchor="middle" x="412.5" y="-69" font-family="Helvetica,sans-Serif" font-size="10.00" fill="#000000"> origin</text>
</g>
<!-- Node3 -->
<g id="node3" class="node">
<title>Node3</title>
<g id="a_node3"><a xlink:href="classlucid_1_1ImmutableVectorOperators.html" target="_top" xlink:title="lucid::ImmutableVectorOperators\l\&lt; Container, 3, std::array,\l PointN_ \&gt;">
<polygon fill="#ffffff" stroke="#000000" points="0,-120.5 0,-161.5 178,-161.5 178,-120.5 0,-120.5"/>
<text text-anchor="start" x="8" y="-149.5" font-family="Helvetica,sans-Serif" font-size="10.00" fill="#000000">lucid::ImmutableVectorOperators</text>
<text text-anchor="start" x="8" y="-138.5" font-family="Helvetica,sans-Serif" font-size="10.00" fill="#000000">&lt; Container, 3, std::array,</text>
<text text-anchor="middle" x="89" y="-127.5" font-family="Helvetica,sans-Serif" font-size="10.00" fill="#000000"> PointN_ &gt;</text>
</a>
</g>
</g>
<!-- Node3&#45;&gt;Node2 -->
<g id="edge2" class="edge">
<title>Node3&#45;&gt;Node2</title>
<path fill="none" stroke="#191970" d="M170.3115,-117.5447C202.9743,-108.1228 238.7758,-97.7954 263.9623,-90.5301"/>
<polygon fill="#191970" stroke="#191970" points="168.9289,-114.3008 160.2908,-120.4353 170.8691,-121.0266 168.9289,-114.3008"/>
</g>
<!-- Node4 -->
<g id="node4" class="node">
<title>Node4</title>
<g id="a_node4"><a xlink:href="classlucid_1_1MutableVectorOperators.html" target="_top" xlink:title="lucid::MutableVectorOperators\l\&lt; Container, 3, std::array,\l PointN_ \&gt;">
<polygon fill="#ffffff" stroke="#000000" points="7,-60.5 7,-101.5 171,-101.5 171,-60.5 7,-60.5"/>
<text text-anchor="start" x="15" y="-89.5" font-family="Helvetica,sans-Serif" font-size="10.00" fill="#000000">lucid::MutableVectorOperators</text>
<text text-anchor="start" x="15" y="-78.5" font-family="Helvetica,sans-Serif" font-size="10.00" fill="#000000">&lt; Container, 3, std::array,</text>
<text text-anchor="middle" x="89" y="-67.5" font-family="Helvetica,sans-Serif" font-size="10.00" fill="#000000"> PointN_ &gt;</text>
</a>
</g>
</g>
<!-- Node4&#45;&gt;Node2 -->
<g id="edge3" class="edge">
<title>Node4&#45;&gt;Node2</title>
<path fill="none" stroke="#191970" d="M181.5661,-81C194.5671,-81 207.8093,-81 220.4669,-81"/>
<polygon fill="#191970" stroke="#191970" points="181.2071,-77.5001 171.2071,-81 181.2071,-84.5001 181.2071,-77.5001"/>
</g>
<!-- Node5 -->
<g id="node5" class="node">
<title>Node5</title>
<g id="a_node5"><a xlink:href="classlucid_1_1NormalN__.html" target="_top" xlink:title="lucid::NormalN_\&lt; Container \&gt;">
<polygon fill="#ffffff" stroke="#000000" points="215,-22.5 215,-41.5 379,-41.5 379,-22.5 215,-22.5"/>
<text text-anchor="middle" x="297" y="-29.5" font-family="Helvetica,sans-Serif" font-size="10.00" fill="#000000">lucid::NormalN_&lt; Container &gt;</text>
</a>
</g>
</g>
<!-- Node5&#45;&gt;Node1 -->
<g id="edge4" class="edge">
<title>Node5&#45;&gt;Node1</title>
<path fill="none" stroke="#9a32cd" stroke-dasharray="5,2" d="M389.5419,-33.2278C402.4757,-33.865 415.5839,-34.7583 428,-36 440.7996,-37.2801 454.5498,-39.3069 467.2888,-41.4616"/>
<polygon fill="#9a32cd" stroke="#9a32cd" points="389.3684,-29.7168 379.2231,-32.77 389.0581,-36.7099 389.3684,-29.7168"/>
<text text-anchor="middle" x="412.5" y="-39" font-family="Helvetica,sans-Serif" font-size="10.00" fill="#000000"> dir</text>
</g>
<!-- Node6 -->
<g id="node6" class="node">
<title>Node6</title>
<g id="a_node6"><a xlink:href="classlucid_1_1ImmutableVectorOperators.html" target="_top" xlink:title="lucid::ImmutableVectorOperators\l\&lt; Container, 3, std::array,\l NormalN_ \&gt;">
<polygon fill="#ffffff" stroke="#000000" points="0,-.5 0,-41.5 178,-41.5 178,-.5 0,-.5"/>
<text text-anchor="start" x="8" y="-29.5" font-family="Helvetica,sans-Serif" font-size="10.00" fill="#000000">lucid::ImmutableVectorOperators</text>
<text text-anchor="start" x="8" y="-18.5" font-family="Helvetica,sans-Serif" font-size="10.00" fill="#000000">&lt; Container, 3, std::array,</text>
<text text-anchor="middle" x="89" y="-7.5" font-family="Helvetica,sans-Serif" font-size="10.00" fill="#000000"> NormalN_ &gt;</text>
</a>
</g>
</g>
<!-- Node6&#45;&gt;Node5 -->
<g id="edge5" class="edge">
<title>Node6&#45;&gt;Node5</title>
<path fill="none" stroke="#191970" d="M188.2046,-26.2464C197.1709,-26.7206 206.1848,-27.1973 214.9789,-27.6623"/>
<polygon fill="#191970" stroke="#191970" points="188.2868,-22.7459 178.1159,-25.7129 187.9171,-29.7362 188.2868,-22.7459"/>
</g>
</g>
</svg>
