<?xml version="1.0" encoding="UTF-8" standalone="no"?>
<!DOCTYPE svg PUBLIC "-//W3C//DTD SVG 1.1//EN"
 "http://www.w3.org/Graphics/SVG/1.1/DTD/svg11.dtd">
<!-- Generated by graphviz version 2.40.1 (20161225.0304)
 -->
<!-- Title: lucid::CornellBox::MatGetter::BSDF::Sample Pages: 1 -->
<svg width="186pt" height="185pt"
 viewBox="0.00 0.00 186.00 185.00" xmlns="http://www.w3.org/2000/svg" xmlns:xlink="http://www.w3.org/1999/xlink">
<g id="graph0" class="graph" transform="scale(1 1) rotate(0) translate(4 181)">
<title>lucid::CornellBox::MatGetter::BSDF::Sample</title>
<polygon fill="#ffffff" stroke="transparent" points="-4,4 -4,-181 182,-181 182,4 -4,4"/>
<!-- Node1 -->
<g id="node1" class="node">
<title>Node1</title>
<polygon fill="#bfbfbf" stroke="#000000" points="19.5,-.5 19.5,-30.5 158.5,-30.5 158.5,-.5 19.5,-.5"/>
<text text-anchor="start" x="27.5" y="-18.5" font-family="Helvetica,sans-Serif" font-size="10.00" fill="#000000">lucid::CornellBox::</text>
<text text-anchor="middle" x="89" y="-7.5" font-family="Helvetica,sans-Serif" font-size="10.00" fill="#000000">MatGetter::BSDF::Sample</text>
</g>
<!-- Node2 -->
<g id="node2" class="node">
<title>Node2</title>
<g id="a_node2"><a xlink:href="classlucid_1_1NormalN__.html" target="_top" xlink:title="lucid::NormalN_\&lt; T,\l N, Container \&gt;">
<polygon fill="#ffffff" stroke="#000000" points="31.5,-78.5 31.5,-108.5 146.5,-108.5 146.5,-78.5 31.5,-78.5"/>
<text text-anchor="start" x="39.5" y="-96.5" font-family="Helvetica,sans-Serif" font-size="10.00" fill="#000000">lucid::NormalN_&lt; T,</text>
<text text-anchor="middle" x="89" y="-85.5" font-family="Helvetica,sans-Serif" font-size="10.00" fill="#000000"> N, Container &gt;</text>
</a>
</g>
</g>
<!-- Node2&#45;&gt;Node1 -->
<g id="edge1" class="edge">
<title>Node2&#45;&gt;Node1</title>
<path fill="none" stroke="#9a32cd" stroke-dasharray="5,2" d="M89,-68.2875C89,-55.9187 89,-41.4264 89,-30.7592"/>
<polygon fill="#9a32cd" stroke="#9a32cd" points="85.5001,-68.4608 89,-78.4608 92.5001,-68.4608 85.5001,-68.4608"/>
<text text-anchor="middle" x="94" y="-52" font-family="Helvetica,sans-Serif" font-size="10.00" fill="#000000"> n</text>
</g>
<!-- Node3 -->
<g id="node3" class="node">
<title>Node3</title>
<g id="a_node3"><a xlink:href="classlucid_1_1ImmutableVectorOperators.html" target="_top" xlink:title="lucid::ImmutableVectorOperators\l\&lt; T, N, Container, NormalN_ \&gt;">
<polygon fill="#ffffff" stroke="#000000" points="0,-146.5 0,-176.5 178,-176.5 178,-146.5 0,-146.5"/>
<text text-anchor="start" x="8" y="-164.5" font-family="Helvetica,sans-Serif" font-size="10.00" fill="#000000">lucid::ImmutableVectorOperators</text>
<text text-anchor="middle" x="89" y="-153.5" font-family="Helvetica,sans-Serif" font-size="10.00" fill="#000000">&lt; T, N, Container, NormalN_ &gt;</text>
</a>
</g>
</g>
<!-- Node3&#45;&gt;Node2 -->
<g id="edge2" class="edge">
<title>Node3&#45;&gt;Node2</title>
<path fill="none" stroke="#191970" d="M89,-136.1174C89,-126.8378 89,-116.6413 89,-108.5492"/>
<polygon fill="#191970" stroke="#191970" points="85.5001,-136.4086 89,-146.4086 92.5001,-136.4086 85.5001,-136.4086"/>
</g>
</g>
</svg>
