<?xml version="1.0" encoding="UTF-8" standalone="no"?>
<!DOCTYPE svg PUBLIC "-//W3C//DTD SVG 1.1//EN"
 "http://www.w3.org/Graphics/SVG/1.1/DTD/svg11.dtd">
<!-- Generated by graphviz version 2.40.1 (20161225.0304)
 -->
<!-- Title: lucid::Constant&lt; Scene, MaterialGetter &gt; Pages: 1 -->
<!--zoomable 279 -->
<svg id="main" version="1.1" xmlns="http://www.w3.org/2000/svg" xmlns:xlink="http://www.w3.org/1999/xlink" xml:space="preserve" onload="init(evt)">
<style type="text/css"><![CDATA[
.edge:hover path { stroke: red; }
.edge:hover polygon { stroke: red; fill: red; }
]]></style>
<script type="text/javascript"><![CDATA[
var edges = document.getElementsByTagName('g');
if (edges && edges.length) {
  for (var i=0;i<edges.length;i++) {
    if (edges[i].id.substr(0,4)=='edge') {
      edges[i].setAttribute('class','edge');
    }
  }
}
]]></script>
        <defs>
                <circle id="rim" cx="0" cy="0" r="7"/>
                <circle id="rim2" cx="0" cy="0" r="3.5"/>
                <g id="zoomPlus">
                        <use xlink:href="#rim" fill="#404040">
                                <set attributeName="fill" to="#808080" begin="zoomplus.mouseover" end="zoomplus.mouseout"/>
                        </use>
                        <path d="M-4,0h8M0,-4v8" fill="none" stroke="white" stroke-width="1.5" pointer-events="none"/>
                </g>
                <g id="zoomMin">
                        <use xlink:href="#rim" fill="#404040">
                                <set attributeName="fill" to="#808080" begin="zoomminus.mouseover" end="zoomminus.mouseout"/>
                        </use>
                        <path d="M-4,0h8" fill="none" stroke="white" stroke-width="1.5" pointer-events="none"/>
                </g>
                <g id="dirArrow">
                        <path fill="none" stroke="white" stroke-width="1.5" d="M0,-3.0v7 M-2.5,-0.5L0,-3.0L2.5,-0.5"/>
                </g>
               <g id="resetDef">
                       <use xlink:href="#rim2" fill="#404040">
                               <set attributeName="fill" to="#808080" begin="reset.mouseover" end="reset.mouseout"/>
                       </use>
               </g>
        </defs>

<script type="text/javascript">
var viewWidth = 838;
var viewHeight = 279;
var sectionId = 'dynsection-0';
</script>
<script xlink:href="svgpan.js"/>
<svg id="graph" class="graph">
<g id="viewport">
<title>lucid::Constant&lt; Scene, MaterialGetter &gt;</title>
<polygon fill="#ffffff" stroke="transparent" points="-4,4 -4,-275 834,-275 834,4 -4,4"/>
<!-- Node1 -->
<g id="node1" class="node">
<title>Node1</title>
<polygon fill="#bfbfbf" stroke="#000000" points="697,-93 697,-123 830,-123 830,-93 697,-93"/>
<text text-anchor="start" x="705" y="-111" font-family="Helvetica,sans-Serif" font-size="10.00" fill="#000000">lucid::Constant&lt; Scene,</text>
<text text-anchor="middle" x="763.5" y="-100" font-family="Helvetica,sans-Serif" font-size="10.00" fill="#000000"> MaterialGetter &gt;</text>
</g>
<!-- Node2 -->
<g id="node2" class="node">
<title>Node2</title>
<g id="a_node2"><a xlink:href="structlucid_1_1Ray__.html" target="_top" xlink:title="lucid::Ray_\&lt; std::array \&gt;">
<polygon fill="#ffffff" stroke="#000000" points="460,-126.5 460,-145.5 599,-145.5 599,-126.5 460,-126.5"/>
<text text-anchor="middle" x="529.5" y="-133.5" font-family="Helvetica,sans-Serif" font-size="10.00" fill="#000000">lucid::Ray_&lt; std::array &gt;</text>
</a>
</g>
</g>
<!-- Node2&#45;&gt;Node1 -->
<g id="edge1" class="edge">
<title>Node2&#45;&gt;Node1</title>
<path fill="none" stroke="#9a32cd" stroke-dasharray="5,2" d="M609.3729,-126.4426C637.7651,-123.0452 669.4114,-119.2585 696.6053,-116.0045"/>
<polygon fill="#9a32cd" stroke="#9a32cd" points="608.5875,-123.0115 599.0742,-127.6749 609.4192,-129.9619 608.5875,-123.0115"/>
<text text-anchor="middle" x="648" y="-128" font-family="Helvetica,sans-Serif" font-size="10.00" fill="#000000"> ray</text>
</g>
<!-- Node3 -->
<g id="node3" class="node">
<title>Node3</title>
<g id="a_node3"><a xlink:href="classlucid_1_1PointN__.html" target="_top" xlink:title="lucid::PointN_\&lt; std\l::array \&gt;">
<polygon fill="#ffffff" stroke="#000000" points="249,-175 249,-205 359,-205 359,-175 249,-175"/>
<text text-anchor="start" x="257" y="-193" font-family="Helvetica,sans-Serif" font-size="10.00" fill="#000000">lucid::PointN_&lt; std</text>
<text text-anchor="middle" x="304" y="-182" font-family="Helvetica,sans-Serif" font-size="10.00" fill="#000000">::array &gt;</text>
</a>
</g>
</g>
<!-- Node3&#45;&gt;Node2 -->
<g id="edge2" class="edge">
<title>Node3&#45;&gt;Node2</title>
<path fill="none" stroke="#9a32cd" stroke-dasharray="5,2" d="M369.366,-174.3469C408.311,-165.0209 456.4757,-153.487 489.7548,-145.5177"/>
<polygon fill="#9a32cd" stroke="#9a32cd" points="368.0734,-171.0574 359.1635,-176.7901 369.7037,-177.865 368.0734,-171.0574"/>
<text text-anchor="middle" x="426.5" y="-166" font-family="Helvetica,sans-Serif" font-size="10.00" fill="#000000"> origin</text>
</g>
<!-- Node4 -->
<g id="node4" class="node">
<title>Node4</title>
<g id="a_node4"><a xlink:href="classlucid_1_1ImmutableVectorOperators.html" target="_top" xlink:title="lucid::ImmutableVectorOperators\l\&lt; std::array, 3, std::array,\l PointN_ \&gt;">
<polygon fill="#ffffff" stroke="#000000" points="0,-229.5 0,-270.5 178,-270.5 178,-229.5 0,-229.5"/>
<text text-anchor="start" x="8" y="-258.5" font-family="Helvetica,sans-Serif" font-size="10.00" fill="#000000">lucid::ImmutableVectorOperators</text>
<text text-anchor="start" x="8" y="-247.5" font-family="Helvetica,sans-Serif" font-size="10.00" fill="#000000">&lt; std::array, 3, std::array,</text>
<text text-anchor="middle" x="89" y="-236.5" font-family="Helvetica,sans-Serif" font-size="10.00" fill="#000000"> PointN_ &gt;</text>
</a>
</g>
</g>
<!-- Node4&#45;&gt;Node3 -->
<g id="edge3" class="edge">
<title>Node4&#45;&gt;Node3</title>
<path fill="none" stroke="#191970" d="M172.5634,-226.68C198.6132,-219.4103 226.6385,-211.5893 250.0911,-205.0443"/>
<polygon fill="#191970" stroke="#191970" points="171.3812,-223.3761 162.69,-229.4353 173.2628,-230.1185 171.3812,-223.3761"/>
</g>
<!-- Node5 -->
<g id="node5" class="node">
<title>Node5</title>
<g id="a_node5"><a xlink:href="classlucid_1_1MutableVectorOperators.html" target="_top" xlink:title="lucid::MutableVectorOperators\l\&lt; std::array, 3, std::array,\l PointN_ \&gt;">
<polygon fill="#ffffff" stroke="#000000" points="7,-169.5 7,-210.5 171,-210.5 171,-169.5 7,-169.5"/>
<text text-anchor="start" x="15" y="-198.5" font-family="Helvetica,sans-Serif" font-size="10.00" fill="#000000">lucid::MutableVectorOperators</text>
<text text-anchor="start" x="15" y="-187.5" font-family="Helvetica,sans-Serif" font-size="10.00" fill="#000000">&lt; std::array, 3, std::array,</text>
<text text-anchor="middle" x="89" y="-176.5" font-family="Helvetica,sans-Serif" font-size="10.00" fill="#000000"> PointN_ &gt;</text>
</a>
</g>
</g>
<!-- Node5&#45;&gt;Node3 -->
<g id="edge4" class="edge">
<title>Node5&#45;&gt;Node3</title>
<path fill="none" stroke="#191970" d="M181.3324,-190C204.3214,-190 228.2547,-190 248.8127,-190"/>
<polygon fill="#191970" stroke="#191970" points="181.2026,-186.5001 171.2026,-190 181.2025,-193.5001 181.2026,-186.5001"/>
</g>
<!-- Node6 -->
<g id="node6" class="node">
<title>Node6</title>
<g id="a_node6"><a xlink:href="classlucid_1_1NormalN__.html" target="_top" xlink:title="lucid::NormalN_\&lt; std\l::array \&gt;">
<polygon fill="#ffffff" stroke="#000000" points="243.5,-121 243.5,-151 364.5,-151 364.5,-121 243.5,-121"/>
<text text-anchor="start" x="251.5" y="-139" font-family="Helvetica,sans-Serif" font-size="10.00" fill="#000000">lucid::NormalN_&lt; std</text>
<text text-anchor="middle" x="304" y="-128" font-family="Helvetica,sans-Serif" font-size="10.00" fill="#000000">::array &gt;</text>
</a>
</g>
</g>
<!-- Node6&#45;&gt;Node2 -->
<g id="edge5" class="edge">
<title>Node6&#45;&gt;Node2</title>
<path fill="none" stroke="#9a32cd" stroke-dasharray="5,2" d="M374.9172,-136C402.0288,-136 432.9004,-136 459.889,-136"/>
<polygon fill="#9a32cd" stroke="#9a32cd" points="374.7265,-132.5001 364.7265,-136 374.7265,-139.5001 374.7265,-132.5001"/>
<text text-anchor="middle" x="426.5" y="-139" font-family="Helvetica,sans-Serif" font-size="10.00" fill="#000000"> dir</text>
</g>
<!-- Node7 -->
<g id="node7" class="node">
<title>Node7</title>
<g id="a_node7"><a xlink:href="classlucid_1_1ImmutableVectorOperators.html" target="_top" xlink:title="lucid::ImmutableVectorOperators\l\&lt; std::array, 3, std::array,\l NormalN_ \&gt;">
<polygon fill="#ffffff" stroke="#000000" points="0,-109.5 0,-150.5 178,-150.5 178,-109.5 0,-109.5"/>
<text text-anchor="start" x="8" y="-138.5" font-family="Helvetica,sans-Serif" font-size="10.00" fill="#000000">lucid::ImmutableVectorOperators</text>
<text text-anchor="start" x="8" y="-127.5" font-family="Helvetica,sans-Serif" font-size="10.00" fill="#000000">&lt; std::array, 3, std::array,</text>
<text text-anchor="middle" x="89" y="-116.5" font-family="Helvetica,sans-Serif" font-size="10.00" fill="#000000"> NormalN_ &gt;</text>
</a>
</g>
</g>
<!-- Node7&#45;&gt;Node6 -->
<g id="edge6" class="edge">
<title>Node7&#45;&gt;Node6</title>
<path fill="none" stroke="#191970" d="M188.0927,-132.7654C206.8972,-133.2902 226.047,-133.8246 243.2215,-134.3039"/>
<polygon fill="#191970" stroke="#191970" points="188.0945,-129.2642 178.0007,-132.4837 187.8991,-136.2614 188.0945,-129.2642"/>
</g>
<!-- Node8 -->
<g id="node8" class="node">
<title>Node8</title>
<g id="a_node8"><a xlink:href="classlucid_1_1Vector.html" target="_top" xlink:title="lucid::Vector\&lt; std\l::array \&gt;">
<polygon fill="#ffffff" stroke="#000000" points="478,-66 478,-96 581,-96 581,-66 478,-66"/>
<text text-anchor="start" x="486" y="-84" font-family="Helvetica,sans-Serif" font-size="10.00" fill="#000000">lucid::Vector&lt; std</text>
<text text-anchor="middle" x="529.5" y="-73" font-family="Helvetica,sans-Serif" font-size="10.00" fill="#000000">::array &gt;</text>
</a>
</g>
</g>
<!-- Node8&#45;&gt;Node1 -->
<g id="edge7" class="edge">
<title>Node8&#45;&gt;Node1</title>
<path fill="none" stroke="#9a32cd" stroke-dasharray="5,2" d="M591.1556,-87.2789C618.1363,-90.1091 650.1538,-93.5793 679,-97 684.7295,-97.6794 690.6744,-98.4071 696.6361,-99.1527"/>
<polygon fill="#9a32cd" stroke="#9a32cd" points="591.3881,-83.7842 581.0787,-86.2269 590.6612,-90.7464 591.3881,-83.7842"/>
<text text-anchor="middle" x="648" y="-100" font-family="Helvetica,sans-Serif" font-size="10.00" fill="#000000"> sample_pos</text>
</g>
<!-- Node9 -->
<g id="node9" class="node">
<title>Node9</title>
<g id="a_node9"><a xlink:href="classlucid_1_1ImmutableVectorOperators.html" target="_top" xlink:title="lucid::ImmutableVectorOperators\l\&lt; std::array, N, std::array,\l Vector \&gt;">
<polygon fill="#ffffff" stroke="#000000" points="215,-60.5 215,-101.5 393,-101.5 393,-60.5 215,-60.5"/>
<text text-anchor="start" x="223" y="-89.5" font-family="Helvetica,sans-Serif" font-size="10.00" fill="#000000">lucid::ImmutableVectorOperators</text>
<text text-anchor="start" x="223" y="-78.5" font-family="Helvetica,sans-Serif" font-size="10.00" fill="#000000">&lt; std::array, N, std::array,</text>
<text text-anchor="middle" x="304" y="-67.5" font-family="Helvetica,sans-Serif" font-size="10.00" fill="#000000"> Vector &gt;</text>
</a>
</g>
</g>
<!-- Node9&#45;&gt;Node8 -->
<g id="edge8" class="edge">
<title>Node9&#45;&gt;Node8</title>
<path fill="none" stroke="#191970" d="M403.2831,-81C428.9522,-81 455.5659,-81 477.6994,-81"/>
<polygon fill="#191970" stroke="#191970" points="403.1236,-77.5001 393.1236,-81 403.1235,-84.5001 403.1236,-77.5001"/>
</g>
<!-- Node10 -->
<g id="node10" class="node">
<title>Node10</title>
<g id="a_node10"><a xlink:href="classlucid_1_1MutableVectorOperators.html" target="_top" xlink:title="lucid::MutableVectorOperators\l\&lt; std::array, N, std::array,\l Vector \&gt;">
<polygon fill="#ffffff" stroke="#000000" points="222,-.5 222,-41.5 386,-41.5 386,-.5 222,-.5"/>
<text text-anchor="start" x="230" y="-29.5" font-family="Helvetica,sans-Serif" font-size="10.00" fill="#000000">lucid::MutableVectorOperators</text>
<text text-anchor="start" x="230" y="-18.5" font-family="Helvetica,sans-Serif" font-size="10.00" fill="#000000">&lt; std::array, N, std::array,</text>
<text text-anchor="middle" x="304" y="-7.5" font-family="Helvetica,sans-Serif" font-size="10.00" fill="#000000"> Vector &gt;</text>
</a>
</g>
</g>
<!-- Node10&#45;&gt;Node8 -->
<g id="edge9" class="edge">
<title>Node10&#45;&gt;Node8</title>
<path fill="none" stroke="#191970" d="M391.1184,-44.1801C420.4148,-51.9751 452.149,-60.4188 477.8287,-67.2515"/>
<polygon fill="#191970" stroke="#191970" points="391.8526,-40.7537 381.2888,-41.5647 390.0526,-47.5183 391.8526,-40.7537"/>
</g>
</g>
</svg>
        <g id="navigator" transform="translate(0 0)" fill="#404254">
                <rect fill="#f2f5e9" fill-opacity="0.5" stroke="#606060" stroke-width=".5" x="0" y="0" width="60" height="60"/>
                <use id="zoomplus" xlink:href="#zoomPlus" x="17" y="9" onmousedown="handleZoom(evt,'in')"/>
                <use id="zoomminus" xlink:href="#zoomMin" x="42" y="9" onmousedown="handleZoom(evt,'out')"/>
                <use id="reset" xlink:href="#resetDef" x="30" y="36" onmousedown="handleReset()"/>
                <g id="arrowUp" xlink:href="#dirArrow" transform="translate(30 24)" onmousedown="handlePan(0,-1)">
                  <use xlink:href="#rim" fill="#404040">
                        <set attributeName="fill" to="#808080" begin="arrowUp.mouseover" end="arrowUp.mouseout"/>
                  </use>
                  <path fill="none" stroke="white" stroke-width="1.5" d="M0,-3.0v7 M-2.5,-0.5L0,-3.0L2.5,-0.5"/>
                </g>
                <g id="arrowRight" xlink:href="#dirArrow" transform="rotate(90) translate(36 -43)" onmousedown="handlePan(1,0)">
                  <use xlink:href="#rim" fill="#404040">
                        <set attributeName="fill" to="#808080" begin="arrowRight.mouseover" end="arrowRight.mouseout"/>
                  </use>
                  <path fill="none" stroke="white" stroke-width="1.5" d="M0,-3.0v7 M-2.5,-0.5L0,-3.0L2.5,-0.5"/>
                </g>
                <g id="arrowDown" xlink:href="#dirArrow" transform="rotate(180) translate(-30 -48)" onmousedown="handlePan(0,1)">
                  <use xlink:href="#rim" fill="#404040">
                        <set attributeName="fill" to="#808080" begin="arrowDown.mouseover" end="arrowDown.mouseout"/>
                  </use>
                  <path fill="none" stroke="white" stroke-width="1.5" d="M0,-3.0v7 M-2.5,-0.5L0,-3.0L2.5,-0.5"/>
                </g>
                <g id="arrowLeft" xlink:href="#dirArrow" transform="rotate(270) translate(-36 17)" onmousedown="handlePan(-1,0)">
                  <use xlink:href="#rim" fill="#404040">
                        <set attributeName="fill" to="#808080" begin="arrowLeft.mouseover" end="arrowLeft.mouseout"/>
                  </use>
                  <path fill="none" stroke="white" stroke-width="1.5" d="M0,-3.0v7 M-2.5,-0.5L0,-3.0L2.5,-0.5"/>
                </g>
        </g>
        <svg viewBox="0 0 15 15" width="100%" height="30px" preserveAspectRatio="xMaxYMin meet">
         <g id="arrow_out" transform="scale(0.3 0.3)">
          <a xlink:href="structlucid_1_1Constant__coll__graph_org.svg" target="_base">
           <rect id="button" ry="5" rx="5" y="6" x="6" height="38" width="38"
                fill="#f2f5e9" fill-opacity="0.5" stroke="#606060" stroke-width="1.0"/>
           <path id="arrow"
             d="M 11.500037,31.436501 C 11.940474,20.09759 22.043105,11.32322 32.158766,21.979434 L 37.068811,17.246167 C 37.068811,17.246167 37.088388,32 37.088388,32 L 22.160133,31.978069 C 22.160133,31.978069 26.997745,27.140456 26.997745,27.140456 C 18.528582,18.264221 13.291696,25.230495 11.500037,31.436501 z"
             style="fill:#404040;"/>
          </a>
         </g>
        </svg>
</svg>
