<?xml version="1.0" encoding="UTF-8" standalone="no"?>
<!DOCTYPE svg PUBLIC "-//W3C//DTD SVG 1.1//EN"
 "http://www.w3.org/Graphics/SVG/1.1/DTD/svg11.dtd">
<!-- Generated by graphviz version 2.42.3 (20191010.1750)
 -->
<!-- Title: lucid::window_scanline_iterator Pages: 1 -->
<svg width="244pt" height="117pt"
 viewBox="0.00 0.00 243.50 117.00" xmlns="http://www.w3.org/2000/svg" xmlns:xlink="http://www.w3.org/1999/xlink">
<g id="graph0" class="graph" transform="scale(1 1) rotate(0) translate(4 113)">
<title>lucid::window_scanline_iterator</title>
<polygon fill="white" stroke="transparent" points="-4,4 -4,-113 239.5,-113 239.5,4 -4,4"/>
<!-- Node1 -->
<g id="node1" class="node">
<title>Node1</title>
<g id="a_node1"><a xlink:title=" ">
<polygon fill="#bfbfbf" stroke="black" points="61.5,-0.5 61.5,-30.5 178.5,-30.5 178.5,-0.5 61.5,-0.5"/>
<text text-anchor="start" x="69.5" y="-18.5" font-family="Helvetica,sans-Serif" font-size="10.00">lucid::window_scanline</text>
<text text-anchor="middle" x="120" y="-7.5" font-family="Helvetica,sans-Serif" font-size="10.00">_iterator</text>
</a>
</g>
</g>
<!-- Node2 -->
<g id="node2" class="node">
<title>Node2</title>
<g id="a_node2"><a xlink:href="structlucid_1_1scanline__iterator.html" target="_top" xlink:title=" ">
<polygon fill="white" stroke="black" points="0,-84 0,-103 114,-103 114,-84 0,-84"/>
<text text-anchor="middle" x="57" y="-91" font-family="Helvetica,sans-Serif" font-size="10.00">lucid::scanline_iterator</text>
</a>
</g>
</g>
<!-- Node2&#45;&gt;Node1 -->
<g id="edge1" class="edge">
<title>Node2&#45;&gt;Node1</title>
<path fill="none" stroke="#9a32cd" stroke-dasharray="5,2" d="M70.88,-75.75C82.13,-62.19 97.79,-43.3 108.38,-30.52"/>
<polygon fill="#9a32cd" stroke="#9a32cd" points="67.91,-73.85 64.23,-83.78 73.3,-78.32 67.91,-73.85"/>
<text text-anchor="middle" x="101.5" y="-52" font-family="Helvetica,sans-Serif" font-size="10.00"> iter</text>
</g>
<!-- Node3 -->
<g id="node3" class="node">
<title>Node3</title>
<g id="a_node3"><a xlink:href="classlucid_1_1Vector.html" target="_top" xlink:title="Generic N&#45;dimnsional euclidian vector.">
<polygon fill="white" stroke="black" points="132.5,-78.5 132.5,-108.5 235.5,-108.5 235.5,-78.5 132.5,-78.5"/>
<text text-anchor="start" x="140.5" y="-96.5" font-family="Helvetica,sans-Serif" font-size="10.00">lucid::Vector&lt; T, N,</text>
<text text-anchor="middle" x="184" y="-85.5" font-family="Helvetica,sans-Serif" font-size="10.00"> Container &gt;</text>
</a>
</g>
</g>
<!-- Node3&#45;&gt;Node1 -->
<g id="edge2" class="edge">
<title>Node3&#45;&gt;Node1</title>
<path fill="none" stroke="#9a32cd" stroke-dasharray="5,2" d="M165.31,-70.31C154.55,-57.53 141.36,-41.86 131.98,-30.73"/>
<polygon fill="#9a32cd" stroke="#9a32cd" points="162.84,-72.81 171.96,-78.2 168.2,-68.3 162.84,-72.81"/>
<text text-anchor="middle" x="169" y="-52" font-family="Helvetica,sans-Serif" font-size="10.00"> offset</text>
</g>
</g>
</svg>
