<?xml version="1.0" encoding="UTF-8" standalone="no"?>
<!DOCTYPE svg PUBLIC "-//W3C//DTD SVG 1.1//EN"
 "http://www.w3.org/Graphics/SVG/1.1/DTD/svg11.dtd">
<!-- Generated by graphviz version 2.42.3 (20191010.1750)
 -->
<!-- Title: lucid::AABB_&lt; Container &gt; Pages: 1 -->
<svg width="143pt" height="106pt"
 viewBox="0.00 0.00 143.00 106.00" xmlns="http://www.w3.org/2000/svg" xmlns:xlink="http://www.w3.org/1999/xlink">
<g id="graph0" class="graph" transform="scale(1 1) rotate(0) translate(4 102)">
<title>lucid::AABB_&lt; Container &gt;</title>
<polygon fill="white" stroke="transparent" points="-4,4 -4,-102 139,-102 139,4 -4,4"/>
<!-- Node1 -->
<g id="node1" class="node">
<title>Node1</title>
<g id="a_node1"><a xlink:title="Axis&#45;aligned bounding box.">
<polygon fill="#bfbfbf" stroke="black" points="0,-0.5 0,-19.5 135,-19.5 135,-0.5 0,-0.5"/>
<text text-anchor="middle" x="67.5" y="-7.5" font-family="Helvetica,sans-Serif" font-size="10.00">lucid::AABB_&lt; Container &gt;</text>
</a>
</g>
</g>
<!-- Node2 -->
<g id="node2" class="node">
<title>Node2</title>
<g id="a_node2"><a xlink:href="classlucid_1_1Vector.html" target="_top" xlink:title=" ">
<polygon fill="white" stroke="black" points="2,-78.5 2,-97.5 133,-97.5 133,-78.5 2,-78.5"/>
<text text-anchor="middle" x="67.5" y="-85.5" font-family="Helvetica,sans-Serif" font-size="10.00">lucid::Vector&lt; Container &gt;</text>
</a>
</g>
</g>
<!-- Node2&#45;&gt;Node1 -->
<g id="edge1" class="edge">
<title>Node2&#45;&gt;Node1</title>
<path fill="none" stroke="#9a32cd" stroke-dasharray="5,2" d="M67.5,-68.22C67.5,-52.7 67.5,-31.36 67.5,-19.62"/>
<polygon fill="#9a32cd" stroke="#9a32cd" points="64,-68.28 67.5,-78.28 71,-68.28 64,-68.28"/>
<text text-anchor="middle" x="80" y="-52" font-family="Helvetica,sans-Serif" font-size="10.00"> vmin</text>
<text text-anchor="middle" x="80" y="-41" font-family="Helvetica,sans-Serif" font-size="10.00">vmax</text>
</g>
</g>
</svg>
