<?xml version="1.0" encoding="UTF-8" standalone="no"?>
<!DOCTYPE svg PUBLIC "-//W3C//DTD SVG 1.1//EN"
 "http://www.w3.org/Graphics/SVG/1.1/DTD/svg11.dtd">
<!-- Generated by graphviz version 2.40.1 (20161225.0304)
 -->
<!-- Title: lucid::CornellBox::MatGetter::BSDF::Sample Pages: 1 -->
<svg width="147pt" height="117pt"
 viewBox="0.00 0.00 147.00 117.00" xmlns="http://www.w3.org/2000/svg" xmlns:xlink="http://www.w3.org/1999/xlink">
<g id="graph0" class="graph" transform="scale(1 1) rotate(0) translate(4 113)">
<title>lucid::CornellBox::MatGetter::BSDF::Sample</title>
<polygon fill="#ffffff" stroke="transparent" points="-4,4 -4,-113 143,-113 143,4 -4,4"/>
<!-- Node1 -->
<g id="node1" class="node">
<title>Node1</title>
<polygon fill="#bfbfbf" stroke="#000000" points="0,-.5 0,-30.5 139,-30.5 139,-.5 0,-.5"/>
<text text-anchor="start" x="8" y="-18.5" font-family="Helvetica,sans-Serif" font-size="10.00" fill="#000000">lucid::CornellBox::</text>
<text text-anchor="middle" x="69.5" y="-7.5" font-family="Helvetica,sans-Serif" font-size="10.00" fill="#000000">MatGetter::BSDF::Sample</text>
</g>
<!-- Node2 -->
<g id="node2" class="node">
<title>Node2</title>
<g id="a_node2"><a xlink:href="classlucid_1_1Vector.html" target="_top" xlink:title="lucid::Vector\&lt; T, N,\l Container \&gt;">
<polygon fill="#ffffff" stroke="#000000" points="14.5,-78.5 14.5,-108.5 124.5,-108.5 124.5,-78.5 14.5,-78.5"/>
<text text-anchor="start" x="22.5" y="-96.5" font-family="Helvetica,sans-Serif" font-size="10.00" fill="#000000">lucid::Vector&lt; T, N,</text>
<text text-anchor="middle" x="69.5" y="-85.5" font-family="Helvetica,sans-Serif" font-size="10.00" fill="#000000"> Container &gt;</text>
</a>
</g>
</g>
<!-- Node2&#45;&gt;Node1 -->
<g id="edge1" class="edge">
<title>Node2&#45;&gt;Node1</title>
<path fill="none" stroke="#9a32cd" stroke-dasharray="5,2" d="M69.5,-68.2875C69.5,-55.9187 69.5,-41.4264 69.5,-30.7592"/>
<polygon fill="#9a32cd" stroke="#9a32cd" points="66.0001,-68.4608 69.5,-78.4608 73.0001,-68.4608 66.0001,-68.4608"/>
<text text-anchor="middle" x="74.5" y="-52" font-family="Helvetica,sans-Serif" font-size="10.00" fill="#000000"> n</text>
</g>
</g>
</svg>
