<?xml version="1.0" encoding="UTF-8" standalone="no"?>
<!DOCTYPE svg PUBLIC "-//W3C//DTD SVG 1.1//EN"
 "http://www.w3.org/Graphics/SVG/1.1/DTD/svg11.dtd">
<!-- Generated by graphviz version 2.40.1 (20161225.0304)
 -->
<!-- Title: lucid::window_scanline_iterator Pages: 1 -->
<!--zoomable 102 -->
<svg id="main" version="1.1" xmlns="http://www.w3.org/2000/svg" xmlns:xlink="http://www.w3.org/1999/xlink" xml:space="preserve" onload="init(evt)">
<style type="text/css"><![CDATA[
.edge:hover path { stroke: red; }
.edge:hover polygon { stroke: red; fill: red; }
]]></style>
<script type="text/javascript"><![CDATA[
var edges = document.getElementsByTagName('g');
if (edges && edges.length) {
  for (var i=0;i<edges.length;i++) {
    if (edges[i].id.substr(0,4)=='edge') {
      edges[i].setAttribute('class','edge');
    }
  }
}
]]></script>
        <defs>
                <circle id="rim" cx="0" cy="0" r="7"/>
                <circle id="rim2" cx="0" cy="0" r="3.5"/>
                <g id="zoomPlus">
                        <use xlink:href="#rim" fill="#404040">
                                <set attributeName="fill" to="#808080" begin="zoomplus.mouseover" end="zoomplus.mouseout"/>
                        </use>
                        <path d="M-4,0h8M0,-4v8" fill="none" stroke="white" stroke-width="1.5" pointer-events="none"/>
                </g>
                <g id="zoomMin">
                        <use xlink:href="#rim" fill="#404040">
                                <set attributeName="fill" to="#808080" begin="zoomminus.mouseover" end="zoomminus.mouseout"/>
                        </use>
                        <path d="M-4,0h8" fill="none" stroke="white" stroke-width="1.5" pointer-events="none"/>
                </g>
                <g id="dirArrow">
                        <path fill="none" stroke="white" stroke-width="1.5" d="M0,-3.0v7 M-2.5,-0.5L0,-3.0L2.5,-0.5"/>
                </g>
               <g id="resetDef">
                       <use xlink:href="#rim2" fill="#404040">
                               <set attributeName="fill" to="#808080" begin="reset.mouseover" end="reset.mouseout"/>
                       </use>
               </g>
        </defs>

<script type="text/javascript">
var viewWidth = 547;
var viewHeight = 102;
var sectionId = 'dynsection-0';
</script>
<script xlink:href="svgpan.js"/>
<svg id="graph" class="graph">
<g id="viewport">
<title>lucid::window_scanline_iterator</title>
<polygon fill="#ffffff" stroke="transparent" points="-4,4 -4,-97.5 543,-97.5 543,4 -4,4"/>
<!-- Node1 -->
<g id="node1" class="node">
<title>Node1</title>
<polygon fill="#bfbfbf" stroke="#000000" points="410,-46.5 410,-76.5 539,-76.5 539,-46.5 410,-46.5"/>
<text text-anchor="start" x="418" y="-64.5" font-family="Helvetica,sans-Serif" font-size="10.00" fill="#000000">lucid::window_scanline</text>
<text text-anchor="middle" x="474.5" y="-53.5" font-family="Helvetica,sans-Serif" font-size="10.00" fill="#000000">_iterator</text>
</g>
<!-- Node2 -->
<g id="node2" class="node">
<title>Node2</title>
<g id="a_node2"><a xlink:href="structlucid_1_1scanline__iterator.html" target="_top" xlink:title="lucid::scanline_iterator">
<polygon fill="#ffffff" stroke="#000000" points="215,-74 215,-93 343,-93 343,-74 215,-74"/>
<text text-anchor="middle" x="279" y="-81" font-family="Helvetica,sans-Serif" font-size="10.00" fill="#000000">lucid::scanline_iterator</text>
</a>
</g>
</g>
<!-- Node2&#45;&gt;Node1 -->
<g id="edge1" class="edge">
<title>Node2&#45;&gt;Node1</title>
<path fill="none" stroke="#9a32cd" stroke-dasharray="5,2" d="M353.1976,-75.1504C371.7852,-73.0587 391.5809,-70.8311 409.6729,-68.7951"/>
<polygon fill="#9a32cd" stroke="#9a32cd" points="352.5599,-71.7 343.014,-76.2964 353.3427,-78.6561 352.5599,-71.7"/>
<text text-anchor="middle" x="376.5" y="-76.5" font-family="Helvetica,sans-Serif" font-size="10.00" fill="#000000"> iter</text>
</g>
<!-- Node3 -->
<g id="node3" class="node">
<title>Node3</title>
<g id="a_node3"><a xlink:href="classlucid_1_1Vector.html" target="_top" xlink:title="Generic vector with constant dimensionality. ">
<polygon fill="#ffffff" stroke="#000000" points="224,-24.5 224,-54.5 334,-54.5 334,-24.5 224,-24.5"/>
<text text-anchor="start" x="232" y="-42.5" font-family="Helvetica,sans-Serif" font-size="10.00" fill="#000000">lucid::Vector&lt; T, N,</text>
<text text-anchor="middle" x="279" y="-31.5" font-family="Helvetica,sans-Serif" font-size="10.00" fill="#000000"> Container &gt;</text>
</a>
</g>
</g>
<!-- Node3&#45;&gt;Node1 -->
<g id="edge2" class="edge">
<title>Node3&#45;&gt;Node1</title>
<path fill="none" stroke="#9a32cd" stroke-dasharray="5,2" d="M344.3679,-46.856C365.412,-49.2241 388.7134,-51.8463 409.7153,-54.2096"/>
<polygon fill="#9a32cd" stroke="#9a32cd" points="344.5672,-43.3564 334.2385,-45.7161 343.7844,-50.3125 344.5672,-43.3564"/>
<text text-anchor="middle" x="376.5" y="-54.5" font-family="Helvetica,sans-Serif" font-size="10.00" fill="#000000"> offset</text>
</g>
<!-- Node4 -->
<g id="node4" class="node">
<title>Node4</title>
<g id="a_node4"><a xlink:href="classlucid_1_1ImmutableVectorOperators.html" target="_top" xlink:title="lucid::ImmutableVectorOperators\l\&lt; T, N, Container, Vector \&gt;">
<polygon fill="#ffffff" stroke="#000000" points="0,-49.5 0,-79.5 178,-79.5 178,-49.5 0,-49.5"/>
<text text-anchor="start" x="8" y="-67.5" font-family="Helvetica,sans-Serif" font-size="10.00" fill="#000000">lucid::ImmutableVectorOperators</text>
<text text-anchor="middle" x="89" y="-56.5" font-family="Helvetica,sans-Serif" font-size="10.00" fill="#000000">&lt; T, N, Container, Vector &gt;</text>
</a>
</g>
</g>
<!-- Node4&#45;&gt;Node3 -->
<g id="edge3" class="edge">
<title>Node4&#45;&gt;Node3</title>
<path fill="none" stroke="#191970" d="M188.4214,-51.4182C200.6328,-49.8115 212.7466,-48.2175 223.9534,-46.743"/>
<polygon fill="#191970" stroke="#191970" points="187.6165,-47.9939 178.1586,-52.7686 188.5297,-54.9341 187.6165,-47.9939"/>
</g>
<!-- Node5 -->
<g id="node5" class="node">
<title>Node5</title>
<g id="a_node5"><a xlink:href="classlucid_1_1MutableVectorOperators.html" target="_top" xlink:title="lucid::MutableVectorOperators\l\&lt; T, N, Container, Vector \&gt;">
<polygon fill="#ffffff" stroke="#000000" points="7,-.5 7,-30.5 171,-30.5 171,-.5 7,-.5"/>
<text text-anchor="start" x="15" y="-18.5" font-family="Helvetica,sans-Serif" font-size="10.00" fill="#000000">lucid::MutableVectorOperators</text>
<text text-anchor="middle" x="89" y="-7.5" font-family="Helvetica,sans-Serif" font-size="10.00" fill="#000000">&lt; T, N, Container, Vector &gt;</text>
</a>
</g>
</g>
<!-- Node5&#45;&gt;Node3 -->
<g id="edge4" class="edge">
<title>Node5&#45;&gt;Node3</title>
<path fill="none" stroke="#191970" d="M181.2642,-27.1544C195.7995,-28.9905 210.4203,-30.8373 223.764,-32.5228"/>
<polygon fill="#191970" stroke="#191970" points="181.5915,-23.668 171.2317,-25.8872 180.7142,-30.6129 181.5915,-23.668"/>
</g>
</g>
</svg>
        <g id="navigator" transform="translate(0 0)" fill="#404254">
                <rect fill="#f2f5e9" fill-opacity="0.5" stroke="#606060" stroke-width=".5" x="0" y="0" width="60" height="60"/>
                <use id="zoomplus" xlink:href="#zoomPlus" x="17" y="9" onmousedown="handleZoom(evt,'in')"/>
                <use id="zoomminus" xlink:href="#zoomMin" x="42" y="9" onmousedown="handleZoom(evt,'out')"/>
                <use id="reset" xlink:href="#resetDef" x="30" y="36" onmousedown="handleReset()"/>
                <g id="arrowUp" xlink:href="#dirArrow" transform="translate(30 24)" onmousedown="handlePan(0,-1)">
                  <use xlink:href="#rim" fill="#404040">
                        <set attributeName="fill" to="#808080" begin="arrowUp.mouseover" end="arrowUp.mouseout"/>
                  </use>
                  <path fill="none" stroke="white" stroke-width="1.5" d="M0,-3.0v7 M-2.5,-0.5L0,-3.0L2.5,-0.5"/>
                </g>
                <g id="arrowRight" xlink:href="#dirArrow" transform="rotate(90) translate(36 -43)" onmousedown="handlePan(1,0)">
                  <use xlink:href="#rim" fill="#404040">
                        <set attributeName="fill" to="#808080" begin="arrowRight.mouseover" end="arrowRight.mouseout"/>
                  </use>
                  <path fill="none" stroke="white" stroke-width="1.5" d="M0,-3.0v7 M-2.5,-0.5L0,-3.0L2.5,-0.5"/>
                </g>
                <g id="arrowDown" xlink:href="#dirArrow" transform="rotate(180) translate(-30 -48)" onmousedown="handlePan(0,1)">
                  <use xlink:href="#rim" fill="#404040">
                        <set attributeName="fill" to="#808080" begin="arrowDown.mouseover" end="arrowDown.mouseout"/>
                  </use>
                  <path fill="none" stroke="white" stroke-width="1.5" d="M0,-3.0v7 M-2.5,-0.5L0,-3.0L2.5,-0.5"/>
                </g>
                <g id="arrowLeft" xlink:href="#dirArrow" transform="rotate(270) translate(-36 17)" onmousedown="handlePan(-1,0)">
                  <use xlink:href="#rim" fill="#404040">
                        <set attributeName="fill" to="#808080" begin="arrowLeft.mouseover" end="arrowLeft.mouseout"/>
                  </use>
                  <path fill="none" stroke="white" stroke-width="1.5" d="M0,-3.0v7 M-2.5,-0.5L0,-3.0L2.5,-0.5"/>
                </g>
        </g>
        <svg viewBox="0 0 15 15" width="100%" height="30px" preserveAspectRatio="xMaxYMin meet">
         <g id="arrow_out" transform="scale(0.3 0.3)">
          <a xlink:href="structlucid_1_1window__scanline__iterator__coll__graph_org.svg" target="_base">
           <rect id="button" ry="5" rx="5" y="6" x="6" height="38" width="38"
                fill="#f2f5e9" fill-opacity="0.5" stroke="#606060" stroke-width="1.0"/>
           <path id="arrow"
             d="M 11.500037,31.436501 C 11.940474,20.09759 22.043105,11.32322 32.158766,21.979434 L 37.068811,17.246167 C 37.068811,17.246167 37.088388,32 37.088388,32 L 22.160133,31.978069 C 22.160133,31.978069 26.997745,27.140456 26.997745,27.140456 C 18.528582,18.264221 13.291696,25.230495 11.500037,31.436501 z"
             style="fill:#404040;"/>
          </a>
         </g>
        </svg>
</svg>
