<?xml version="1.0" encoding="UTF-8" standalone="no"?>
<!DOCTYPE svg PUBLIC "-//W3C//DTD SVG 1.1//EN"
 "http://www.w3.org/Graphics/SVG/1.1/DTD/svg11.dtd">
<!-- Generated by graphviz version 2.40.1 (20161225.0304)
 -->
<!-- Title: CameraCapture Pages: 1 -->
<svg width="232pt" height="184pt"
 viewBox="0.00 0.00 232.00 184.00" xmlns="http://www.w3.org/2000/svg" xmlns:xlink="http://www.w3.org/1999/xlink">
<g id="graph0" class="graph" transform="scale(1 1) rotate(0) translate(4 180)">
<title>CameraCapture</title>
<polygon fill="#ffffff" stroke="transparent" points="-4,4 -4,-180 228,-180 228,4 -4,4"/>
<!-- Node1 -->
<g id="node1" class="node">
<title>Node1</title>
<polygon fill="#bfbfbf" stroke="#000000" points="65,-.5 65,-19.5 158,-19.5 158,-.5 65,-.5"/>
<text text-anchor="middle" x="111.5" y="-7.5" font-family="Helvetica,sans-Serif" font-size="10.00" fill="#000000">CameraCapture</text>
</g>
<!-- Node2 -->
<g id="node2" class="node">
<title>Node2</title>
<g id="a_node2"><a xlink:href="structlucid_1_1perspective_1_1shoot.html" target="_top" xlink:title="lucid::perspective\l::shoot">
<polygon fill="#ffffff" stroke="#000000" points="60,-67.5 60,-97.5 163,-97.5 163,-67.5 60,-67.5"/>
<text text-anchor="start" x="68" y="-85.5" font-family="Helvetica,sans-Serif" font-size="10.00" fill="#000000">lucid::perspective</text>
<text text-anchor="middle" x="111.5" y="-74.5" font-family="Helvetica,sans-Serif" font-size="10.00" fill="#000000">::shoot</text>
</a>
</g>
</g>
<!-- Node2&#45;&gt;Node1 -->
<g id="edge1" class="edge">
<title>Node2&#45;&gt;Node1</title>
<path fill="none" stroke="#9a32cd" stroke-dasharray="5,2" d="M111.5,-57.305C111.5,-44.424 111.5,-29.4836 111.5,-19.8957"/>
<polygon fill="#9a32cd" stroke="#9a32cd" points="108.0001,-57.4779 111.5,-67.478 115.0001,-57.478 108.0001,-57.4779"/>
<text text-anchor="middle" x="124" y="-41" font-family="Helvetica,sans-Serif" font-size="10.00" fill="#000000"> cam</text>
</g>
<!-- Node3 -->
<g id="node3" class="node">
<title>Node3</title>
<g id="a_node3"><a xlink:href="classlucid_1_1Matrix.html" target="_top" xlink:title="lucid::Matrix\&lt; std\l::array \&gt;">
<polygon fill="#ffffff" stroke="#000000" points="0,-145.5 0,-175.5 103,-175.5 103,-145.5 0,-145.5"/>
<text text-anchor="start" x="8" y="-163.5" font-family="Helvetica,sans-Serif" font-size="10.00" fill="#000000">lucid::Matrix&lt; std</text>
<text text-anchor="middle" x="51.5" y="-152.5" font-family="Helvetica,sans-Serif" font-size="10.00" fill="#000000">::array &gt;</text>
</a>
</g>
</g>
<!-- Node3&#45;&gt;Node2 -->
<g id="edge2" class="edge">
<title>Node3&#45;&gt;Node2</title>
<path fill="none" stroke="#9a32cd" stroke-dasharray="5,2" d="M69.1834,-137.5116C79.0466,-124.6894 91.0593,-109.0729 99.7622,-97.7592"/>
<polygon fill="#9a32cd" stroke="#9a32cd" points="66.3916,-135.4006 63.0686,-145.4608 71.9399,-139.6686 66.3916,-135.4006"/>
<text text-anchor="middle" x="111.5" y="-119" font-family="Helvetica,sans-Serif" font-size="10.00" fill="#000000"> transform</text>
</g>
<!-- Node4 -->
<g id="node4" class="node">
<title>Node4</title>
<g id="a_node4"><a xlink:href="classlucid_1_1Vector.html" target="_top" xlink:title="lucid::Vector\&lt; std\l::array \&gt;">
<polygon fill="#ffffff" stroke="#000000" points="121,-145.5 121,-175.5 224,-175.5 224,-145.5 121,-145.5"/>
<text text-anchor="start" x="129" y="-163.5" font-family="Helvetica,sans-Serif" font-size="10.00" fill="#000000">lucid::Vector&lt; std</text>
<text text-anchor="middle" x="172.5" y="-152.5" font-family="Helvetica,sans-Serif" font-size="10.00" fill="#000000">::array &gt;</text>
</a>
</g>
</g>
<!-- Node4&#45;&gt;Node2 -->
<g id="edge3" class="edge">
<title>Node4&#45;&gt;Node2</title>
<path fill="none" stroke="#9a32cd" stroke-dasharray="5,2" d="M156.9332,-137.0153C152.1507,-130.1181 146.7582,-122.6452 141.5,-116 136.5586,-109.7552 130.7924,-103.1685 125.643,-97.5038"/>
<polygon fill="#9a32cd" stroke="#9a32cd" points="154.0831,-139.0482 162.6088,-145.3382 159.8665,-135.1044 154.0831,-139.0482"/>
<text text-anchor="middle" x="181.5" y="-119" font-family="Helvetica,sans-Serif" font-size="10.00" fill="#000000"> tan_fov_half</text>
</g>
</g>
</svg>
