<?xml version="1.0" encoding="UTF-8" standalone="no"?>
<!DOCTYPE svg PUBLIC "-//W3C//DTD SVG 1.1//EN"
 "http://www.w3.org/Graphics/SVG/1.1/DTD/svg11.dtd">
<!-- Generated by graphviz version 2.40.1 (20161225.0304)
 -->
<!-- Title: lucid::Disk_&lt; Container &gt; Pages: 1 -->
<svg width="609pt" height="170pt"
 viewBox="0.00 0.00 609.00 170.00" xmlns="http://www.w3.org/2000/svg" xmlns:xlink="http://www.w3.org/1999/xlink">
<g id="graph0" class="graph" transform="scale(1 1) rotate(0) translate(4 166)">
<title>lucid::Disk_&lt; Container &gt;</title>
<polygon fill="#ffffff" stroke="transparent" points="-4,4 -4,-166 605,-166 605,4 -4,4"/>
<!-- Node1 -->
<g id="node1" class="node">
<title>Node1</title>
<polygon fill="#bfbfbf" stroke="#000000" points="458,-41.5 458,-60.5 601,-60.5 601,-41.5 458,-41.5"/>
<text text-anchor="middle" x="529.5" y="-48.5" font-family="Helvetica,sans-Serif" font-size="10.00" fill="#000000">lucid::Disk_&lt; Container &gt;</text>
</g>
<!-- Node2 -->
<g id="node2" class="node">
<title>Node2</title>
<g id="a_node2"><a xlink:href="classlucid_1_1PointN__.html" target="_top" xlink:title="lucid::PointN_\&lt; Container \&gt;">
<polygon fill="#ffffff" stroke="#000000" points="220.5,-71.5 220.5,-90.5 373.5,-90.5 373.5,-71.5 220.5,-71.5"/>
<text text-anchor="middle" x="297" y="-78.5" font-family="Helvetica,sans-Serif" font-size="10.00" fill="#000000">lucid::PointN_&lt; Container &gt;</text>
</a>
</g>
</g>
<!-- Node2&#45;&gt;Node1 -->
<g id="edge1" class="edge">
<title>Node2&#45;&gt;Node1</title>
<path fill="none" stroke="#9a32cd" stroke-dasharray="5,2" d="M381.1305,-70.1444C406.253,-66.9028 433.5472,-63.381 457.795,-60.2523"/>
<polygon fill="#9a32cd" stroke="#9a32cd" points="380.3538,-66.7156 370.8839,-71.4666 381.2496,-73.658 380.3538,-66.7156"/>
<text text-anchor="middle" x="418.5" y="-70" font-family="Helvetica,sans-Serif" font-size="10.00" fill="#000000"> position</text>
</g>
<!-- Node3 -->
<g id="node3" class="node">
<title>Node3</title>
<g id="a_node3"><a xlink:href="classlucid_1_1ImmutableVectorOperators.html" target="_top" xlink:title="lucid::ImmutableVectorOperators\l\&lt; Container, 3, std::array,\l PointN_ \&gt;">
<polygon fill="#ffffff" stroke="#000000" points="0,-120.5 0,-161.5 178,-161.5 178,-120.5 0,-120.5"/>
<text text-anchor="start" x="8" y="-149.5" font-family="Helvetica,sans-Serif" font-size="10.00" fill="#000000">lucid::ImmutableVectorOperators</text>
<text text-anchor="start" x="8" y="-138.5" font-family="Helvetica,sans-Serif" font-size="10.00" fill="#000000">&lt; Container, 3, std::array,</text>
<text text-anchor="middle" x="89" y="-127.5" font-family="Helvetica,sans-Serif" font-size="10.00" fill="#000000"> PointN_ &gt;</text>
</a>
</g>
</g>
<!-- Node3&#45;&gt;Node2 -->
<g id="edge2" class="edge">
<title>Node3&#45;&gt;Node2</title>
<path fill="none" stroke="#191970" d="M170.3115,-117.5447C202.9743,-108.1228 238.7758,-97.7954 263.9623,-90.5301"/>
<polygon fill="#191970" stroke="#191970" points="168.9289,-114.3008 160.2908,-120.4353 170.8691,-121.0266 168.9289,-114.3008"/>
</g>
<!-- Node4 -->
<g id="node4" class="node">
<title>Node4</title>
<g id="a_node4"><a xlink:href="classlucid_1_1MutableVectorOperators.html" target="_top" xlink:title="lucid::MutableVectorOperators\l\&lt; Container, 3, std::array,\l PointN_ \&gt;">
<polygon fill="#ffffff" stroke="#000000" points="7,-60.5 7,-101.5 171,-101.5 171,-60.5 7,-60.5"/>
<text text-anchor="start" x="15" y="-89.5" font-family="Helvetica,sans-Serif" font-size="10.00" fill="#000000">lucid::MutableVectorOperators</text>
<text text-anchor="start" x="15" y="-78.5" font-family="Helvetica,sans-Serif" font-size="10.00" fill="#000000">&lt; Container, 3, std::array,</text>
<text text-anchor="middle" x="89" y="-67.5" font-family="Helvetica,sans-Serif" font-size="10.00" fill="#000000"> PointN_ &gt;</text>
</a>
</g>
</g>
<!-- Node4&#45;&gt;Node2 -->
<g id="edge3" class="edge">
<title>Node4&#45;&gt;Node2</title>
<path fill="none" stroke="#191970" d="M181.5661,-81C194.5671,-81 207.8093,-81 220.4669,-81"/>
<polygon fill="#191970" stroke="#191970" points="181.2071,-77.5001 171.2071,-81 181.2071,-84.5001 181.2071,-77.5001"/>
</g>
<!-- Node5 -->
<g id="node5" class="node">
<title>Node5</title>
<g id="a_node5"><a xlink:href="classlucid_1_1NormalN__.html" target="_top" xlink:title="lucid::NormalN_\&lt; Container \&gt;">
<polygon fill="#ffffff" stroke="#000000" points="215,-22.5 215,-41.5 379,-41.5 379,-22.5 215,-22.5"/>
<text text-anchor="middle" x="297" y="-29.5" font-family="Helvetica,sans-Serif" font-size="10.00" fill="#000000">lucid::NormalN_&lt; Container &gt;</text>
</a>
</g>
</g>
<!-- Node5&#45;&gt;Node1 -->
<g id="edge4" class="edge">
<title>Node5&#45;&gt;Node1</title>
<path fill="none" stroke="#9a32cd" stroke-dasharray="5,2" d="M389.5516,-32.7208C406.3645,-33.3826 423.7258,-34.4163 440,-36 453.0151,-37.2666 466.9988,-39.2886 479.9548,-41.4431"/>
<polygon fill="#9a32cd" stroke="#9a32cd" points="389.2856,-29.2093 379.1686,-32.3551 389.0392,-36.205 389.2856,-29.2093"/>
<text text-anchor="middle" x="418.5" y="-39" font-family="Helvetica,sans-Serif" font-size="10.00" fill="#000000"> normal</text>
</g>
<!-- Node6 -->
<g id="node6" class="node">
<title>Node6</title>
<g id="a_node6"><a xlink:href="classlucid_1_1ImmutableVectorOperators.html" target="_top" xlink:title="lucid::ImmutableVectorOperators\l\&lt; Container, 3, std::array,\l NormalN_ \&gt;">
<polygon fill="#ffffff" stroke="#000000" points="0,-.5 0,-41.5 178,-41.5 178,-.5 0,-.5"/>
<text text-anchor="start" x="8" y="-29.5" font-family="Helvetica,sans-Serif" font-size="10.00" fill="#000000">lucid::ImmutableVectorOperators</text>
<text text-anchor="start" x="8" y="-18.5" font-family="Helvetica,sans-Serif" font-size="10.00" fill="#000000">&lt; Container, 3, std::array,</text>
<text text-anchor="middle" x="89" y="-7.5" font-family="Helvetica,sans-Serif" font-size="10.00" fill="#000000"> NormalN_ &gt;</text>
</a>
</g>
</g>
<!-- Node6&#45;&gt;Node5 -->
<g id="edge5" class="edge">
<title>Node6&#45;&gt;Node5</title>
<path fill="none" stroke="#191970" d="M188.2046,-26.2464C197.1709,-26.7206 206.1848,-27.1973 214.9789,-27.6623"/>
<polygon fill="#191970" stroke="#191970" points="188.2868,-22.7459 178.1159,-25.7129 187.9171,-29.7362 188.2868,-22.7459"/>
</g>
</g>
</svg>
