<?xml version="1.0" encoding="UTF-8" standalone="no"?>
<!DOCTYPE svg PUBLIC "-//W3C//DTD SVG 1.1//EN"
 "http://www.w3.org/Graphics/SVG/1.1/DTD/svg11.dtd">
<!-- Generated by graphviz version 2.40.1 (20161225.0304)
 -->
<!-- Title: CameraCapture Pages: 1 -->
<svg width="683pt" height="124pt"
 viewBox="0.00 0.00 683.00 123.50" xmlns="http://www.w3.org/2000/svg" xmlns:xlink="http://www.w3.org/1999/xlink">
<g id="graph0" class="graph" transform="scale(1 1) rotate(0) translate(4 119.5)">
<title>CameraCapture</title>
<polygon fill="#ffffff" stroke="transparent" points="-4,4 -4,-119.5 679,-119.5 679,4 -4,4"/>
<!-- Node1 -->
<g id="node1" class="node">
<title>Node1</title>
<polygon fill="#bfbfbf" stroke="#000000" points="582,-66.5 582,-85.5 675,-85.5 675,-66.5 582,-66.5"/>
<text text-anchor="middle" x="628.5" y="-73.5" font-family="Helvetica,sans-Serif" font-size="10.00" fill="#000000">CameraCapture</text>
</g>
<!-- Node2 -->
<g id="node2" class="node">
<title>Node2</title>
<g id="a_node2"><a xlink:href="structlucid_1_1perspective_1_1shoot.html" target="_top" xlink:title="lucid::perspective\l::shoot">
<polygon fill="#ffffff" stroke="#000000" points="418,-61 418,-91 521,-91 521,-61 418,-61"/>
<text text-anchor="start" x="426" y="-79" font-family="Helvetica,sans-Serif" font-size="10.00" fill="#000000">lucid::perspective</text>
<text text-anchor="middle" x="469.5" y="-68" font-family="Helvetica,sans-Serif" font-size="10.00" fill="#000000">::shoot</text>
</a>
</g>
</g>
<!-- Node2&#45;&gt;Node1 -->
<g id="edge1" class="edge">
<title>Node2&#45;&gt;Node1</title>
<path fill="none" stroke="#9a32cd" stroke-dasharray="5,2" d="M531.4223,-76C548.2394,-76 566.1613,-76 581.9695,-76"/>
<polygon fill="#9a32cd" stroke="#9a32cd" points="531.1228,-72.5001 521.1227,-76 531.1227,-79.5001 531.1228,-72.5001"/>
<text text-anchor="middle" x="551.5" y="-79" font-family="Helvetica,sans-Serif" font-size="10.00" fill="#000000"> cam</text>
</g>
<!-- Node3 -->
<g id="node3" class="node">
<title>Node3</title>
<g id="a_node3"><a xlink:href="classlucid_1_1Matrix.html" target="_top" xlink:title="lucid::Matrix\&lt; std\l::array \&gt;">
<polygon fill="#ffffff" stroke="#000000" points="215,-85 215,-115 318,-115 318,-85 215,-85"/>
<text text-anchor="start" x="223" y="-103" font-family="Helvetica,sans-Serif" font-size="10.00" fill="#000000">lucid::Matrix&lt; std</text>
<text text-anchor="middle" x="266.5" y="-92" font-family="Helvetica,sans-Serif" font-size="10.00" fill="#000000">::array &gt;</text>
</a>
</g>
</g>
<!-- Node3&#45;&gt;Node2 -->
<g id="edge2" class="edge">
<title>Node3&#45;&gt;Node2</title>
<path fill="none" stroke="#9a32cd" stroke-dasharray="5,2" d="M328.5379,-92.6655C357.1244,-89.2858 390.6572,-85.3213 417.8438,-82.1071"/>
<polygon fill="#9a32cd" stroke="#9a32cd" points="327.7706,-89.2317 318.2507,-93.8817 328.5925,-96.1833 327.7706,-89.2317"/>
<text text-anchor="middle" x="368" y="-94" font-family="Helvetica,sans-Serif" font-size="10.00" fill="#000000"> transform</text>
</g>
<!-- Node4 -->
<g id="node4" class="node">
<title>Node4</title>
<g id="a_node4"><a xlink:href="classlucid_1_1Vector.html" target="_top" xlink:title="lucid::Vector\&lt; std\l::array \&gt;">
<polygon fill="#ffffff" stroke="#000000" points="215,-36 215,-66 318,-66 318,-36 215,-36"/>
<text text-anchor="start" x="223" y="-54" font-family="Helvetica,sans-Serif" font-size="10.00" fill="#000000">lucid::Vector&lt; std</text>
<text text-anchor="middle" x="266.5" y="-43" font-family="Helvetica,sans-Serif" font-size="10.00" fill="#000000">::array &gt;</text>
</a>
</g>
</g>
<!-- Node4&#45;&gt;Node2 -->
<g id="edge3" class="edge">
<title>Node4&#45;&gt;Node2</title>
<path fill="none" stroke="#9a32cd" stroke-dasharray="5,2" d="M328.5379,-58.6401C357.1244,-62.1606 390.6572,-66.2903 417.8438,-69.6384"/>
<polygon fill="#9a32cd" stroke="#9a32cd" points="328.6036,-55.1219 318.2507,-57.3732 327.7479,-62.0694 328.6036,-55.1219"/>
<text text-anchor="middle" x="368" y="-70" font-family="Helvetica,sans-Serif" font-size="10.00" fill="#000000"> tan_fov_half</text>
</g>
<!-- Node5 -->
<g id="node5" class="node">
<title>Node5</title>
<g id="a_node5"><a xlink:href="classlucid_1_1ImmutableVectorOperators.html" target="_top" xlink:title="lucid::ImmutableVectorOperators\l\&lt; std::array, N, std::array,\l Vector \&gt;">
<polygon fill="#ffffff" stroke="#000000" points="0,-60.5 0,-101.5 178,-101.5 178,-60.5 0,-60.5"/>
<text text-anchor="start" x="8" y="-89.5" font-family="Helvetica,sans-Serif" font-size="10.00" fill="#000000">lucid::ImmutableVectorOperators</text>
<text text-anchor="start" x="8" y="-78.5" font-family="Helvetica,sans-Serif" font-size="10.00" fill="#000000">&lt; std::array, N, std::array,</text>
<text text-anchor="middle" x="89" y="-67.5" font-family="Helvetica,sans-Serif" font-size="10.00" fill="#000000"> Vector &gt;</text>
</a>
</g>
</g>
<!-- Node5&#45;&gt;Node4 -->
<g id="edge4" class="edge">
<title>Node5&#45;&gt;Node4</title>
<path fill="none" stroke="#191970" d="M188.0531,-64.2586C197.2718,-62.7005 206.3402,-61.1678 214.8532,-59.729"/>
<polygon fill="#191970" stroke="#191970" points="187.2869,-60.8384 178.01,-65.9561 188.4535,-67.7405 187.2869,-60.8384"/>
</g>
<!-- Node6 -->
<g id="node6" class="node">
<title>Node6</title>
<g id="a_node6"><a xlink:href="classlucid_1_1MutableVectorOperators.html" target="_top" xlink:title="lucid::MutableVectorOperators\l\&lt; std::array, N, std::array,\l Vector \&gt;">
<polygon fill="#ffffff" stroke="#000000" points="7,-.5 7,-41.5 171,-41.5 171,-.5 7,-.5"/>
<text text-anchor="start" x="15" y="-29.5" font-family="Helvetica,sans-Serif" font-size="10.00" fill="#000000">lucid::MutableVectorOperators</text>
<text text-anchor="start" x="15" y="-18.5" font-family="Helvetica,sans-Serif" font-size="10.00" fill="#000000">&lt; std::array, N, std::array,</text>
<text text-anchor="middle" x="89" y="-7.5" font-family="Helvetica,sans-Serif" font-size="10.00" fill="#000000"> Vector &gt;</text>
</a>
</g>
</g>
<!-- Node6&#45;&gt;Node4 -->
<g id="edge5" class="edge">
<title>Node6&#45;&gt;Node4</title>
<path fill="none" stroke="#191970" d="M181.3816,-36.6138C192.9033,-38.5611 204.3433,-40.4946 214.9231,-42.2828"/>
<polygon fill="#191970" stroke="#191970" points="181.6984,-33.1178 171.2549,-34.9022 180.5318,-40.0199 181.6984,-33.1178"/>
</g>
</g>
</svg>
