<?xml version="1.0" encoding="UTF-8" standalone="no"?>
<!DOCTYPE svg PUBLIC "-//W3C//DTD SVG 1.1//EN"
 "http://www.w3.org/Graphics/SVG/1.1/DTD/svg11.dtd">
<!-- Generated by graphviz version 2.40.1 (20161225.0304)
 -->
<!-- Title: FilmCapture Pages: 1 -->
<svg width="651pt" height="124pt"
 viewBox="0.00 0.00 651.00 123.50" xmlns="http://www.w3.org/2000/svg" xmlns:xlink="http://www.w3.org/1999/xlink">
<g id="graph0" class="graph" transform="scale(1 1) rotate(0) translate(4 119.5)">
<title>FilmCapture</title>
<polygon fill="#ffffff" stroke="transparent" points="-4,4 -4,-119.5 647,-119.5 647,4 -4,4"/>
<!-- Node1 -->
<g id="node1" class="node">
<title>Node1</title>
<polygon fill="#bfbfbf" stroke="#000000" points="568,-66.5 568,-85.5 643,-85.5 643,-66.5 568,-66.5"/>
<text text-anchor="middle" x="605.5" y="-73.5" font-family="Helvetica,sans-Serif" font-size="10.00" fill="#000000">FilmCapture</text>
</g>
<!-- Node2 -->
<g id="node2" class="node">
<title>Node2</title>
<g id="a_node2"><a xlink:href="structlucid_1_1Film.html" target="_top" xlink:title="lucid::Film\&lt; Image \&gt;">
<polygon fill="#ffffff" stroke="#000000" points="391,-66.5 391,-85.5 510,-85.5 510,-66.5 391,-66.5"/>
<text text-anchor="middle" x="450.5" y="-73.5" font-family="Helvetica,sans-Serif" font-size="10.00" fill="#000000">lucid::Film&lt; Image &gt;</text>
</a>
</g>
</g>
<!-- Node2&#45;&gt;Node1 -->
<g id="edge1" class="edge">
<title>Node2&#45;&gt;Node1</title>
<path fill="none" stroke="#9a32cd" stroke-dasharray="5,2" d="M520.4637,-76C536.7175,-76 553.4176,-76 567.6679,-76"/>
<polygon fill="#9a32cd" stroke="#9a32cd" points="520.4271,-72.5001 510.427,-76 520.427,-79.5001 520.4271,-72.5001"/>
<text text-anchor="middle" x="539" y="-79" font-family="Helvetica,sans-Serif" font-size="10.00" fill="#000000"> film</text>
</g>
<!-- Node3 -->
<g id="node3" class="node">
<title>Node3</title>
<g id="a_node3"><a xlink:href="classlucid_1_1ScanlineImage.html" target="_top" xlink:title="lucid::ScanlineImage\l\&lt; float, 4 \&gt;">
<polygon fill="#ffffff" stroke="#000000" points="215,-85 215,-115 333,-115 333,-85 215,-85"/>
<text text-anchor="start" x="223" y="-103" font-family="Helvetica,sans-Serif" font-size="10.00" fill="#000000">lucid::ScanlineImage</text>
<text text-anchor="middle" x="274" y="-92" font-family="Helvetica,sans-Serif" font-size="10.00" fill="#000000">&lt; float, 4 &gt;</text>
</a>
</g>
</g>
<!-- Node3&#45;&gt;Node2 -->
<g id="edge2" class="edge">
<title>Node3&#45;&gt;Node2</title>
<path fill="none" stroke="#9a32cd" stroke-dasharray="5,2" d="M343.4139,-90.5613C359.0764,-88.4315 375.5693,-86.1889 390.7923,-84.1189"/>
<polygon fill="#9a32cd" stroke="#9a32cd" points="342.7002,-87.126 333.2629,-91.9416 343.6434,-94.0622 342.7002,-87.126"/>
<text text-anchor="middle" x="362" y="-92" font-family="Helvetica,sans-Serif" font-size="10.00" fill="#000000"> img</text>
</g>
<!-- Node4 -->
<g id="node4" class="node">
<title>Node4</title>
<g id="a_node4"><a xlink:href="classlucid_1_1Vector.html" target="_top" xlink:title="lucid::Vector\&lt; std\l::array \&gt;">
<polygon fill="#ffffff" stroke="#000000" points="222.5,-36 222.5,-66 325.5,-66 325.5,-36 222.5,-36"/>
<text text-anchor="start" x="230.5" y="-54" font-family="Helvetica,sans-Serif" font-size="10.00" fill="#000000">lucid::Vector&lt; std</text>
<text text-anchor="middle" x="274" y="-43" font-family="Helvetica,sans-Serif" font-size="10.00" fill="#000000">::array &gt;</text>
</a>
</g>
</g>
<!-- Node4&#45;&gt;Node2 -->
<g id="edge3" class="edge">
<title>Node4&#45;&gt;Node2</title>
<path fill="none" stroke="#9a32cd" stroke-dasharray="5,2" d="M335.5753,-59.7217C353.4912,-62.2594 373.026,-65.0264 390.823,-67.5472"/>
<polygon fill="#9a32cd" stroke="#9a32cd" points="335.9176,-56.2353 325.5256,-58.2982 334.9359,-63.1662 335.9176,-56.2353"/>
<text text-anchor="middle" x="362" y="-67" font-family="Helvetica,sans-Serif" font-size="10.00" fill="#000000"> res</text>
</g>
<!-- Node5 -->
<g id="node5" class="node">
<title>Node5</title>
<g id="a_node5"><a xlink:href="classlucid_1_1ImmutableVectorOperators.html" target="_top" xlink:title="lucid::ImmutableVectorOperators\l\&lt; std::array, N, std::array,\l Vector \&gt;">
<polygon fill="#ffffff" stroke="#000000" points="0,-60.5 0,-101.5 178,-101.5 178,-60.5 0,-60.5"/>
<text text-anchor="start" x="8" y="-89.5" font-family="Helvetica,sans-Serif" font-size="10.00" fill="#000000">lucid::ImmutableVectorOperators</text>
<text text-anchor="start" x="8" y="-78.5" font-family="Helvetica,sans-Serif" font-size="10.00" fill="#000000">&lt; std::array, N, std::array,</text>
<text text-anchor="middle" x="89" y="-67.5" font-family="Helvetica,sans-Serif" font-size="10.00" fill="#000000"> Vector &gt;</text>
</a>
</g>
</g>
<!-- Node5&#45;&gt;Node4 -->
<g id="edge4" class="edge">
<title>Node5&#45;&gt;Node4</title>
<path fill="none" stroke="#191970" d="M188.1927,-64.9147C200.0101,-62.9984 211.6811,-61.1058 222.4288,-59.3629"/>
<polygon fill="#191970" stroke="#191970" points="187.5594,-61.4716 178.2486,-66.5272 188.68,-68.3813 187.5594,-61.4716"/>
</g>
<!-- Node6 -->
<g id="node6" class="node">
<title>Node6</title>
<g id="a_node6"><a xlink:href="classlucid_1_1MutableVectorOperators.html" target="_top" xlink:title="lucid::MutableVectorOperators\l\&lt; std::array, N, std::array,\l Vector \&gt;">
<polygon fill="#ffffff" stroke="#000000" points="7,-.5 7,-41.5 171,-41.5 171,-.5 7,-.5"/>
<text text-anchor="start" x="15" y="-29.5" font-family="Helvetica,sans-Serif" font-size="10.00" fill="#000000">lucid::MutableVectorOperators</text>
<text text-anchor="start" x="15" y="-18.5" font-family="Helvetica,sans-Serif" font-size="10.00" fill="#000000">&lt; std::array, N, std::array,</text>
<text text-anchor="middle" x="89" y="-7.5" font-family="Helvetica,sans-Serif" font-size="10.00" fill="#000000"> Vector &gt;</text>
</a>
</g>
</g>
<!-- Node6&#45;&gt;Node4 -->
<g id="edge5" class="edge">
<title>Node6&#45;&gt;Node4</title>
<path fill="none" stroke="#191970" d="M181.4365,-35.9897C195.4916,-38.2689 209.5486,-40.5484 222.3096,-42.6178"/>
<polygon fill="#191970" stroke="#191970" points="181.6524,-32.4791 171.2211,-34.3331 180.5318,-39.3888 181.6524,-32.4791"/>
</g>
</g>
</svg>
