<?xml version="1.0" encoding="UTF-8" standalone="no"?>
<!DOCTYPE svg PUBLIC "-//W3C//DTD SVG 1.1//EN"
 "http://www.w3.org/Graphics/SVG/1.1/DTD/svg11.dtd">
<!-- Generated by graphviz version 2.40.1 (20161225.0304)
 -->
<!-- Title: DummyAction Pages: 1 -->
<svg width="658pt" height="110pt"
 viewBox="0.00 0.00 658.00 110.00" xmlns="http://www.w3.org/2000/svg" xmlns:xlink="http://www.w3.org/1999/xlink">
<g id="graph0" class="graph" transform="scale(1 1) rotate(0) translate(4 106)">
<title>DummyAction</title>
<polygon fill="#ffffff" stroke="transparent" points="-4,4 -4,-106 654,-106 654,4 -4,4"/>
<!-- Node1 -->
<g id="node1" class="node">
<title>Node1</title>
<polygon fill="#bfbfbf" stroke="#000000" points="564,-41.5 564,-60.5 650,-60.5 650,-41.5 564,-41.5"/>
<text text-anchor="middle" x="607" y="-48.5" font-family="Helvetica,sans-Serif" font-size="10.00" fill="#000000">DummyAction</text>
</g>
<!-- Node2 -->
<g id="node2" class="node">
<title>Node2</title>
<g id="a_node2"><a xlink:href="classlucid_1_1ScanlineImage.html" target="_top" xlink:title="lucid::ScanlineImage\l\&lt; T, NC, Allocator \&gt;">
<polygon fill="#ffffff" stroke="#000000" points="388,-36 388,-66 506,-66 506,-36 388,-36"/>
<text text-anchor="start" x="396" y="-54" font-family="Helvetica,sans-Serif" font-size="10.00" fill="#000000">lucid::ScanlineImage</text>
<text text-anchor="middle" x="447" y="-43" font-family="Helvetica,sans-Serif" font-size="10.00" fill="#000000">&lt; T, NC, Allocator &gt;</text>
</a>
</g>
</g>
<!-- Node2&#45;&gt;Node1 -->
<g id="edge1" class="edge">
<title>Node2&#45;&gt;Node1</title>
<path fill="none" stroke="#9a32cd" stroke-dasharray="5,2" d="M516.5297,-51C532.5317,-51 549.1023,-51 563.6209,-51"/>
<polygon fill="#9a32cd" stroke="#9a32cd" points="516.1235,-47.5001 506.1235,-51 516.1235,-54.5001 516.1235,-47.5001"/>
<text text-anchor="middle" x="535" y="-54" font-family="Helvetica,sans-Serif" font-size="10.00" fill="#000000"> img</text>
</g>
<!-- Node3 -->
<g id="node3" class="node">
<title>Node3</title>
<g id="a_node3"><a xlink:href="classlucid_1_1Vector.html" target="_top" xlink:title="lucid::Vector\&lt; std\l::array \&gt;">
<polygon fill="#ffffff" stroke="#000000" points="215,-36 215,-66 318,-66 318,-36 215,-36"/>
<text text-anchor="start" x="223" y="-54" font-family="Helvetica,sans-Serif" font-size="10.00" fill="#000000">lucid::Vector&lt; std</text>
<text text-anchor="middle" x="266.5" y="-43" font-family="Helvetica,sans-Serif" font-size="10.00" fill="#000000">::array &gt;</text>
</a>
</g>
</g>
<!-- Node3&#45;&gt;Node2 -->
<g id="edge2" class="edge">
<title>Node3&#45;&gt;Node2</title>
<path fill="none" stroke="#9a32cd" stroke-dasharray="5,2" d="M328.4077,-51C347.6839,-51 368.88,-51 387.9551,-51"/>
<polygon fill="#9a32cd" stroke="#9a32cd" points="328.2241,-47.5001 318.2241,-51 328.224,-54.5001 328.2241,-47.5001"/>
<text text-anchor="middle" x="353" y="-54" font-family="Helvetica,sans-Serif" font-size="10.00" fill="#000000"> m_res</text>
</g>
<!-- Node4 -->
<g id="node4" class="node">
<title>Node4</title>
<g id="a_node4"><a xlink:href="classlucid_1_1ImmutableVectorOperators.html" target="_top" xlink:title="lucid::ImmutableVectorOperators\l\&lt; std::array, N, std::array,\l Vector \&gt;">
<polygon fill="#ffffff" stroke="#000000" points="0,-60.5 0,-101.5 178,-101.5 178,-60.5 0,-60.5"/>
<text text-anchor="start" x="8" y="-89.5" font-family="Helvetica,sans-Serif" font-size="10.00" fill="#000000">lucid::ImmutableVectorOperators</text>
<text text-anchor="start" x="8" y="-78.5" font-family="Helvetica,sans-Serif" font-size="10.00" fill="#000000">&lt; std::array, N, std::array,</text>
<text text-anchor="middle" x="89" y="-67.5" font-family="Helvetica,sans-Serif" font-size="10.00" fill="#000000"> Vector &gt;</text>
</a>
</g>
</g>
<!-- Node4&#45;&gt;Node3 -->
<g id="edge3" class="edge">
<title>Node4&#45;&gt;Node3</title>
<path fill="none" stroke="#191970" d="M188.0531,-64.2586C197.2718,-62.7005 206.3402,-61.1678 214.8532,-59.729"/>
<polygon fill="#191970" stroke="#191970" points="187.2869,-60.8384 178.01,-65.9561 188.4535,-67.7405 187.2869,-60.8384"/>
</g>
<!-- Node5 -->
<g id="node5" class="node">
<title>Node5</title>
<g id="a_node5"><a xlink:href="classlucid_1_1MutableVectorOperators.html" target="_top" xlink:title="lucid::MutableVectorOperators\l\&lt; std::array, N, std::array,\l Vector \&gt;">
<polygon fill="#ffffff" stroke="#000000" points="7,-.5 7,-41.5 171,-41.5 171,-.5 7,-.5"/>
<text text-anchor="start" x="15" y="-29.5" font-family="Helvetica,sans-Serif" font-size="10.00" fill="#000000">lucid::MutableVectorOperators</text>
<text text-anchor="start" x="15" y="-18.5" font-family="Helvetica,sans-Serif" font-size="10.00" fill="#000000">&lt; std::array, N, std::array,</text>
<text text-anchor="middle" x="89" y="-7.5" font-family="Helvetica,sans-Serif" font-size="10.00" fill="#000000"> Vector &gt;</text>
</a>
</g>
</g>
<!-- Node5&#45;&gt;Node3 -->
<g id="edge4" class="edge">
<title>Node5&#45;&gt;Node3</title>
<path fill="none" stroke="#191970" d="M181.3816,-36.6138C192.9033,-38.5611 204.3433,-40.4946 214.9231,-42.2828"/>
<polygon fill="#191970" stroke="#191970" points="181.6984,-33.1178 171.2549,-34.9022 180.5318,-40.0199 181.6984,-33.1178"/>
</g>
</g>
</svg>
