<?xml version="1.0" encoding="UTF-8" standalone="no"?>
<!DOCTYPE svg PUBLIC "-//W3C//DTD SVG 1.1//EN"
 "http://www.w3.org/Graphics/SVG/1.1/DTD/svg11.dtd">
<!-- Generated by graphviz version 2.40.1 (20161225.0304)
 -->
<!-- Title: DummyAction Pages: 1 -->
<svg width="126pt" height="106pt"
 viewBox="0.00 0.00 126.00 106.00" xmlns="http://www.w3.org/2000/svg" xmlns:xlink="http://www.w3.org/1999/xlink">
<g id="graph0" class="graph" transform="scale(1 1) rotate(0) translate(4 102)">
<title>DummyAction</title>
<polygon fill="#ffffff" stroke="transparent" points="-4,4 -4,-102 122,-102 122,4 -4,4"/>
<!-- Node1 -->
<g id="node1" class="node">
<title>Node1</title>
<polygon fill="#bfbfbf" stroke="#000000" points="16,-.5 16,-19.5 102,-19.5 102,-.5 16,-.5"/>
<text text-anchor="middle" x="59" y="-7.5" font-family="Helvetica,sans-Serif" font-size="10.00" fill="#000000">DummyAction</text>
</g>
<!-- Node2 -->
<g id="node2" class="node">
<title>Node2</title>
<g id="a_node2"><a xlink:href="classlucid_1_1ScanlineImage.html" target="_top" xlink:title="lucid::ScanlineImage\l\&lt; T, NC, Allocator \&gt;">
<polygon fill="#ffffff" stroke="#000000" points="0,-67.5 0,-97.5 118,-97.5 118,-67.5 0,-67.5"/>
<text text-anchor="start" x="8" y="-85.5" font-family="Helvetica,sans-Serif" font-size="10.00" fill="#000000">lucid::ScanlineImage</text>
<text text-anchor="middle" x="59" y="-74.5" font-family="Helvetica,sans-Serif" font-size="10.00" fill="#000000">&lt; T, NC, Allocator &gt;</text>
</a>
</g>
</g>
<!-- Node2&#45;&gt;Node1 -->
<g id="edge1" class="edge">
<title>Node2&#45;&gt;Node1</title>
<path fill="none" stroke="#9a32cd" stroke-dasharray="5,2" d="M59,-57.305C59,-44.424 59,-29.4836 59,-19.8957"/>
<polygon fill="#9a32cd" stroke="#9a32cd" points="55.5001,-57.4779 59,-67.478 62.5001,-57.478 55.5001,-57.4779"/>
<text text-anchor="middle" x="70" y="-41" font-family="Helvetica,sans-Serif" font-size="10.00" fill="#000000"> img</text>
</g>
</g>
</svg>
