<?xml version="1.0" encoding="UTF-8" standalone="no"?>
<!DOCTYPE svg PUBLIC "-//W3C//DTD SVG 1.1//EN"
 "http://www.w3.org/Graphics/SVG/1.1/DTD/svg11.dtd">
<!-- Generated by graphviz version 2.40.1 (20161225.0304)
 -->
<!-- Title: lucid::window_scanline_iterator Pages: 1 -->
<svg width="264pt" height="117pt"
 viewBox="0.00 0.00 264.00 117.00" xmlns="http://www.w3.org/2000/svg" xmlns:xlink="http://www.w3.org/1999/xlink">
<g id="graph0" class="graph" transform="scale(1 1) rotate(0) translate(4 113)">
<title>lucid::window_scanline_iterator</title>
<polygon fill="#ffffff" stroke="transparent" points="-4,4 -4,-113 260,-113 260,4 -4,4"/>
<!-- Node1 -->
<g id="node1" class="node">
<title>Node1</title>
<polygon fill="#bfbfbf" stroke="#000000" points="67.5,-.5 67.5,-30.5 196.5,-30.5 196.5,-.5 67.5,-.5"/>
<text text-anchor="start" x="75.5" y="-18.5" font-family="Helvetica,sans-Serif" font-size="10.00" fill="#000000">lucid::window_scanline</text>
<text text-anchor="middle" x="132" y="-7.5" font-family="Helvetica,sans-Serif" font-size="10.00" fill="#000000">_iterator</text>
</g>
<!-- Node2 -->
<g id="node2" class="node">
<title>Node2</title>
<g id="a_node2"><a xlink:href="structlucid_1_1scanline__iterator.html" target="_top" xlink:title="lucid::scanline_iterator">
<polygon fill="#ffffff" stroke="#000000" points="0,-84 0,-103 128,-103 128,-84 0,-84"/>
<text text-anchor="middle" x="64" y="-91" font-family="Helvetica,sans-Serif" font-size="10.00" fill="#000000">lucid::scanline_iterator</text>
</a>
</g>
</g>
<!-- Node2&#45;&gt;Node1 -->
<g id="edge1" class="edge">
<title>Node2&#45;&gt;Node1</title>
<path fill="none" stroke="#9a32cd" stroke-dasharray="5,2" d="M79.0533,-76.2329C90.9125,-62.6298 107.2893,-43.8446 118.6769,-30.7824"/>
<polygon fill="#9a32cd" stroke="#9a32cd" points="76.2713,-74.0979 72.3381,-83.9357 81.5477,-78.6979 76.2713,-74.0979"/>
<text text-anchor="middle" x="113" y="-52" font-family="Helvetica,sans-Serif" font-size="10.00" fill="#000000"> iter</text>
</g>
<!-- Node3 -->
<g id="node3" class="node">
<title>Node3</title>
<g id="a_node3"><a xlink:href="classlucid_1_1Vector.html" target="_top" xlink:title="lucid::Vector\&lt; T, N,\l Container \&gt;">
<polygon fill="#ffffff" stroke="#000000" points="146,-78.5 146,-108.5 256,-108.5 256,-78.5 146,-78.5"/>
<text text-anchor="start" x="154" y="-96.5" font-family="Helvetica,sans-Serif" font-size="10.00" fill="#000000">lucid::Vector&lt; T, N,</text>
<text text-anchor="middle" x="201" y="-85.5" font-family="Helvetica,sans-Serif" font-size="10.00" fill="#000000"> Container &gt;</text>
</a>
</g>
</g>
<!-- Node3&#45;&gt;Node1 -->
<g id="edge2" class="edge">
<title>Node3&#45;&gt;Node1</title>
<path fill="none" stroke="#9a32cd" stroke-dasharray="5,2" d="M180.9875,-70.8772C169.5849,-57.9872 155.6021,-42.1807 145.4985,-30.7592"/>
<polygon fill="#9a32cd" stroke="#9a32cd" points="178.4488,-73.2898 187.6961,-78.4608 183.6918,-68.6518 178.4488,-73.2898"/>
<text text-anchor="middle" x="185.5" y="-52" font-family="Helvetica,sans-Serif" font-size="10.00" fill="#000000"> offset</text>
</g>
</g>
</svg>
