<?xml version="1.0" encoding="UTF-8" standalone="no"?>
<!DOCTYPE svg PUBLIC "-//W3C//DTD SVG 1.1//EN"
 "http://www.w3.org/Graphics/SVG/1.1/DTD/svg11.dtd">
<!-- Generated by graphviz version 2.40.1 (20161225.0304)
 -->
<!-- Title: lucid::argparse::Visitor&lt; OptDesc, PosDesc &gt;::State&lt; Desc, Bindings &gt; Pages: 1 -->
<svg width="167pt" height="117pt"
 viewBox="0.00 0.00 167.00 117.00" xmlns="http://www.w3.org/2000/svg" xmlns:xlink="http://www.w3.org/1999/xlink">
<g id="graph0" class="graph" transform="scale(1 1) rotate(0) translate(4 113)">
<title>lucid::argparse::Visitor&lt; OptDesc, PosDesc &gt;::State&lt; Desc, Bindings &gt;</title>
<polygon fill="#ffffff" stroke="transparent" points="-4,4 -4,-113 163,-113 163,4 -4,4"/>
<!-- Node1 -->
<g id="node1" class="node">
<title>Node1</title>
<polygon fill="#bfbfbf" stroke="#000000" points="0,-.5 0,-41.5 159,-41.5 159,-.5 0,-.5"/>
<text text-anchor="start" x="8" y="-29.5" font-family="Helvetica,sans-Serif" font-size="10.00" fill="#000000">lucid::argparse::Visitor</text>
<text text-anchor="start" x="8" y="-18.5" font-family="Helvetica,sans-Serif" font-size="10.00" fill="#000000">&lt; OptDesc, PosDesc &gt;::State</text>
<text text-anchor="middle" x="79.5" y="-7.5" font-family="Helvetica,sans-Serif" font-size="10.00" fill="#000000">&lt; Desc, Bindings &gt;</text>
</g>
<!-- Node2 -->
<g id="node2" class="node">
<title>Node2</title>
<polygon fill="#ffffff" stroke="#bfbfbf" points="25,-89.5 25,-108.5 66,-108.5 66,-89.5 25,-89.5"/>
<text text-anchor="middle" x="45.5" y="-96.5" font-family="Helvetica,sans-Serif" font-size="10.00" fill="#000000">Desc</text>
</g>
<!-- Node2&#45;&gt;Node1 -->
<g id="edge1" class="edge">
<title>Node2&#45;&gt;Node1</title>
<path fill="none" stroke="#9a32cd" stroke-dasharray="5,2" d="M53.6724,-80.2515C58.7283,-68.6528 65.2258,-53.7467 70.4389,-41.7873"/>
<polygon fill="#9a32cd" stroke="#9a32cd" points="50.4565,-78.8701 49.6691,-89.4357 56.8734,-81.6673 50.4565,-78.8701"/>
<text text-anchor="middle" x="75.5" y="-63" font-family="Helvetica,sans-Serif" font-size="10.00" fill="#000000"> desc</text>
</g>
<!-- Node3 -->
<g id="node3" class="node">
<title>Node3</title>
<polygon fill="#ffffff" stroke="#bfbfbf" points="84,-89.5 84,-108.5 143,-108.5 143,-89.5 84,-89.5"/>
<text text-anchor="middle" x="113.5" y="-96.5" font-family="Helvetica,sans-Serif" font-size="10.00" fill="#000000">Bindings</text>
</g>
<!-- Node3&#45;&gt;Node1 -->
<g id="edge2" class="edge">
<title>Node3&#45;&gt;Node1</title>
<path fill="none" stroke="#9a32cd" stroke-dasharray="5,2" d="M105.3276,-80.2515C100.2717,-68.6528 93.7742,-53.7467 88.5611,-41.7873"/>
<polygon fill="#9a32cd" stroke="#9a32cd" points="102.1266,-81.6673 109.3309,-89.4357 108.5435,-78.8701 102.1266,-81.6673"/>
<text text-anchor="middle" x="123" y="-63" font-family="Helvetica,sans-Serif" font-size="10.00" fill="#000000"> bindings</text>
</g>
</g>
</svg>
